%TF.GenerationSoftware,KiCad,Pcbnew,7.0.9-7.0.9~ubuntu22.04.1*%
%TF.CreationDate,2023-11-27T21:35:50+01:00*%
%TF.ProjectId,ohe_power_supply_1,6f68655f-706f-4776-9572-5f737570706c,rev?*%
%TF.SameCoordinates,Original*%
%TF.FileFunction,Copper,L2,Bot*%
%TF.FilePolarity,Positive*%
%FSLAX46Y46*%
G04 Gerber Fmt 4.6, Leading zero omitted, Abs format (unit mm)*
G04 Created by KiCad (PCBNEW 7.0.9-7.0.9~ubuntu22.04.1) date 2023-11-27 21:35:50*
%MOMM*%
%LPD*%
G01*
G04 APERTURE LIST*
%TA.AperFunction,ComponentPad*%
%ADD10C,0.500000*%
%TD*%
%TA.AperFunction,SMDPad,CuDef*%
%ADD11R,2.450000X2.450000*%
%TD*%
%TA.AperFunction,ComponentPad*%
%ADD12R,1.700000X1.700000*%
%TD*%
%TA.AperFunction,ComponentPad*%
%ADD13O,1.700000X1.700000*%
%TD*%
%TA.AperFunction,ViaPad*%
%ADD14C,0.600000*%
%TD*%
%TA.AperFunction,Conductor*%
%ADD15C,0.127000*%
%TD*%
%TA.AperFunction,Conductor*%
%ADD16C,0.300000*%
%TD*%
%TA.AperFunction,Conductor*%
%ADD17C,0.254000*%
%TD*%
G04 APERTURE END LIST*
D10*
%TO.P,U1,25,EP*%
%TO.N,GND*%
X190275000Y-113062500D03*
X190275000Y-112087500D03*
X190275000Y-111112500D03*
X192225000Y-111112500D03*
X191250000Y-112087500D03*
D11*
X191250000Y-112087500D03*
D10*
X192225000Y-112087500D03*
X191250000Y-111112500D03*
X192225000Y-113062500D03*
X191250000Y-113062500D03*
%TD*%
D12*
%TO.P,J1,1,Pin_1*%
%TO.N,Vin*%
X196190000Y-122790000D03*
D13*
%TO.P,J1,2,Pin_2*%
%TO.N,GND*%
X193650000Y-122790000D03*
%TO.P,J1,3,Pin_3*%
%TO.N,unconnected-(J1-Pin_3-Pad3)*%
X191110000Y-122790000D03*
%TO.P,J1,4,Pin_4*%
%TO.N,+12V*%
X188570000Y-122790000D03*
%TO.P,J1,5,Pin_5*%
%TO.N,GND*%
X186030000Y-122790000D03*
%TO.P,J1,6,Pin_6*%
%TO.N,-12V*%
X183490000Y-122790000D03*
%TO.P,J1,7,Pin_7*%
%TO.N,GND*%
X180950000Y-122790000D03*
%TO.P,J1,8,Pin_8*%
%TO.N,+3V3*%
X178410000Y-122790000D03*
%TO.P,J1,9,Pin_9*%
%TO.N,GND*%
X175870000Y-122790000D03*
%TO.P,J1,10,Pin_10*%
%TO.N,EN*%
X173330000Y-122790000D03*
%TD*%
D14*
%TO.N,Net-(Q1-G)*%
X189543138Y-114877310D03*
X186400000Y-115000000D03*
%TO.N,GND*%
X200000000Y-123000000D03*
X200000000Y-122000000D03*
X200000000Y-121000000D03*
X200000000Y-120000000D03*
%TO.N,Vin*%
X181600000Y-124600000D03*
%TO.N,Net-(U1-PSN)*%
X191200000Y-115650498D03*
X188396586Y-112055297D03*
%TO.N,Vin*%
X171900000Y-120100000D03*
%TO.N,EN*%
X170700000Y-110700000D03*
%TO.N,GND*%
X174800000Y-115400000D03*
X177600000Y-111700000D03*
%TO.N,+12V*%
X198800000Y-110100000D03*
%TO.N,GND*%
X185300000Y-114100000D03*
%TO.N,EN*%
X190430271Y-115233994D03*
X191499835Y-114753868D03*
%TO.N,GND*%
X194500000Y-107500000D03*
%TO.N,Net-(U1-CP)*%
X191626500Y-109278148D03*
X186800000Y-110000000D03*
%TO.N,GND*%
X192900000Y-108900000D03*
X188333999Y-110750162D03*
%TD*%
D15*
%TO.N,Net-(Q1-G)*%
X189699757Y-114877310D02*
X189543138Y-114877310D01*
X186400000Y-115000000D02*
X189777553Y-115000000D01*
D16*
%TO.N,GND*%
X193200000Y-110200000D02*
X193137500Y-110200000D01*
D15*
%TO.N,Net-(U1-PSN)*%
X191200000Y-115650498D02*
X191400115Y-115650498D01*
X191400115Y-115650498D02*
X192063335Y-114987278D01*
X192063335Y-114987278D02*
X192063335Y-114520458D01*
X192063335Y-114520458D02*
X191642877Y-114100000D01*
X191642877Y-114100000D02*
X189300000Y-114100000D01*
X189300000Y-114100000D02*
X188500000Y-113300000D01*
X188500000Y-113300000D02*
X188500000Y-112158711D01*
X188500000Y-112158711D02*
X188396586Y-112055297D01*
D17*
%TO.N,Net-(U1-CP)*%
X191626500Y-109278148D02*
X190904648Y-110000000D01*
X190904648Y-110000000D02*
X186800000Y-110000000D01*
D16*
%TO.N,Vin*%
X181600000Y-124600000D02*
X171500000Y-124600000D01*
X194380000Y-124600000D02*
X181600000Y-124600000D01*
D15*
%TO.N,Net-(U1-PSN)*%
X188396586Y-111903414D02*
X188396586Y-112055297D01*
D16*
%TO.N,Vin*%
X196190000Y-122790000D02*
X194380000Y-124600000D01*
X170900000Y-121100000D02*
X171900000Y-120100000D01*
X171500000Y-124600000D02*
X170900000Y-124000000D01*
X170900000Y-124000000D02*
X170900000Y-121100000D01*
D15*
%TO.N,EN*%
X173330000Y-118470000D02*
X173330000Y-118800000D01*
X173330000Y-118800000D02*
X173330000Y-122790000D01*
X170700000Y-110700000D02*
X171100000Y-110700000D01*
X171100000Y-110700000D02*
X173330000Y-112930000D01*
X173330000Y-112930000D02*
X173330000Y-118800000D01*
X190430271Y-115233994D02*
X190064265Y-115600000D01*
X190064265Y-115600000D02*
X176200000Y-115600000D01*
X176200000Y-115600000D02*
X173330000Y-118470000D01*
D16*
%TO.N,+12V*%
X188570000Y-122790000D02*
X190160000Y-121200000D01*
X190160000Y-121200000D02*
X198000000Y-121200000D01*
X198000000Y-121200000D02*
X199100000Y-120100000D01*
X199100000Y-120100000D02*
X199100000Y-110400000D01*
X199100000Y-110400000D02*
X198800000Y-110100000D01*
D15*
%TO.N,EN*%
X191499835Y-114753868D02*
X190910397Y-114753868D01*
X190910397Y-114753868D02*
X190430271Y-115233994D01*
%TD*%
%TA.AperFunction,Conductor*%
%TO.N,GND*%
G36*
X200642539Y-103320185D02*
G01*
X200688294Y-103372989D01*
X200699500Y-103424500D01*
X200699500Y-125575500D01*
X200679815Y-125642539D01*
X200627011Y-125688294D01*
X200575500Y-125699500D01*
X168424500Y-125699500D01*
X168357461Y-125679815D01*
X168311706Y-125627011D01*
X168300500Y-125575500D01*
X168300500Y-110700003D01*
X169894435Y-110700003D01*
X169914630Y-110879249D01*
X169914631Y-110879254D01*
X169974211Y-111049523D01*
X170062570Y-111190145D01*
X170070184Y-111202262D01*
X170197738Y-111329816D01*
X170288080Y-111386582D01*
X170349987Y-111425481D01*
X170350478Y-111425789D01*
X170439834Y-111457056D01*
X170520745Y-111485368D01*
X170520750Y-111485369D01*
X170699996Y-111505565D01*
X170700000Y-111505565D01*
X170700004Y-111505565D01*
X170879246Y-111485369D01*
X170879245Y-111485369D01*
X170879255Y-111485368D01*
X170960166Y-111457055D01*
X171029941Y-111453493D01*
X171088799Y-111486416D01*
X172729681Y-113127297D01*
X172763166Y-113188620D01*
X172766000Y-113214978D01*
X172766000Y-118428963D01*
X172765469Y-118437064D01*
X172761133Y-118469998D01*
X172761133Y-118470000D01*
X172765469Y-118502933D01*
X172766000Y-118511034D01*
X172766000Y-119543209D01*
X172746315Y-119610248D01*
X172693511Y-119656003D01*
X172624353Y-119665947D01*
X172560797Y-119636922D01*
X172537007Y-119609182D01*
X172529817Y-119597739D01*
X172402262Y-119470184D01*
X172249523Y-119374211D01*
X172079254Y-119314631D01*
X172079249Y-119314630D01*
X171900004Y-119294435D01*
X171899996Y-119294435D01*
X171720750Y-119314630D01*
X171720745Y-119314631D01*
X171550476Y-119374211D01*
X171397737Y-119470184D01*
X171270184Y-119597737D01*
X171174210Y-119750478D01*
X171114632Y-119920744D01*
X171114630Y-119920752D01*
X171113815Y-119927988D01*
X171086743Y-119992400D01*
X171078277Y-120001775D01*
X170500483Y-120579569D01*
X170487910Y-120589643D01*
X170488065Y-120589830D01*
X170482059Y-120594798D01*
X170468664Y-120609063D01*
X170432809Y-120647244D01*
X170421949Y-120658104D01*
X170411088Y-120668965D01*
X170411078Y-120668977D01*
X170406587Y-120674765D01*
X170402801Y-120679197D01*
X170369552Y-120714606D01*
X170359322Y-120733213D01*
X170348646Y-120749464D01*
X170335640Y-120766232D01*
X170335636Y-120766238D01*
X170316348Y-120810811D01*
X170313777Y-120816058D01*
X170290372Y-120858630D01*
X170290372Y-120858631D01*
X170285091Y-120879199D01*
X170278791Y-120897601D01*
X170270364Y-120917073D01*
X170262766Y-120965047D01*
X170261581Y-120970770D01*
X170249500Y-121017818D01*
X170249500Y-121039044D01*
X170247973Y-121058444D01*
X170244653Y-121079403D01*
X170249225Y-121127767D01*
X170249500Y-121133606D01*
X170249500Y-123914494D01*
X170247732Y-123930505D01*
X170247974Y-123930528D01*
X170247240Y-123938294D01*
X170249500Y-124010203D01*
X170249500Y-124040920D01*
X170249501Y-124040940D01*
X170250418Y-124048206D01*
X170250876Y-124054024D01*
X170252402Y-124102567D01*
X170252403Y-124102570D01*
X170258323Y-124122948D01*
X170262268Y-124141996D01*
X170264928Y-124163054D01*
X170264931Y-124163064D01*
X170282813Y-124208230D01*
X170284705Y-124213758D01*
X170298254Y-124260395D01*
X170298255Y-124260397D01*
X170309060Y-124278666D01*
X170317617Y-124296134D01*
X170323226Y-124310300D01*
X170325432Y-124315872D01*
X170353983Y-124355170D01*
X170357188Y-124360049D01*
X170381919Y-124401865D01*
X170381923Y-124401869D01*
X170396925Y-124416871D01*
X170409563Y-124431669D01*
X170422033Y-124448833D01*
X170422036Y-124448836D01*
X170422037Y-124448837D01*
X170459476Y-124479809D01*
X170463776Y-124483722D01*
X170979564Y-124999510D01*
X170989635Y-125012080D01*
X170989822Y-125011926D01*
X170994796Y-125017937D01*
X170994798Y-125017940D01*
X171014253Y-125036209D01*
X171047243Y-125067190D01*
X171068967Y-125088913D01*
X171074757Y-125093405D01*
X171079197Y-125097197D01*
X171108498Y-125124711D01*
X171114607Y-125130448D01*
X171114609Y-125130449D01*
X171133205Y-125140672D01*
X171149470Y-125151357D01*
X171166232Y-125164360D01*
X171166235Y-125164361D01*
X171166236Y-125164362D01*
X171210823Y-125183656D01*
X171216059Y-125186221D01*
X171258632Y-125209627D01*
X171274340Y-125213659D01*
X171279186Y-125214904D01*
X171297598Y-125221207D01*
X171317073Y-125229635D01*
X171365071Y-125237237D01*
X171370740Y-125238411D01*
X171417823Y-125250500D01*
X171439051Y-125250500D01*
X171458448Y-125252026D01*
X171479403Y-125255345D01*
X171479404Y-125255346D01*
X171479404Y-125255345D01*
X171479405Y-125255346D01*
X171527761Y-125250775D01*
X171533599Y-125250500D01*
X181094932Y-125250500D01*
X181160904Y-125269506D01*
X181250477Y-125325789D01*
X181250481Y-125325790D01*
X181420737Y-125385366D01*
X181420743Y-125385367D01*
X181420745Y-125385368D01*
X181420746Y-125385368D01*
X181420750Y-125385369D01*
X181599996Y-125405565D01*
X181600000Y-125405565D01*
X181600004Y-125405565D01*
X181779249Y-125385369D01*
X181779251Y-125385368D01*
X181779255Y-125385368D01*
X181779258Y-125385366D01*
X181779262Y-125385366D01*
X181869377Y-125353832D01*
X181949522Y-125325789D01*
X182039096Y-125269505D01*
X182105068Y-125250500D01*
X194294495Y-125250500D01*
X194310505Y-125252267D01*
X194310528Y-125252026D01*
X194318289Y-125252758D01*
X194318296Y-125252760D01*
X194390203Y-125250500D01*
X194420925Y-125250500D01*
X194428190Y-125249581D01*
X194434016Y-125249122D01*
X194482569Y-125247597D01*
X194502956Y-125241673D01*
X194521996Y-125237731D01*
X194543058Y-125235071D01*
X194588235Y-125217183D01*
X194593735Y-125215300D01*
X194640398Y-125201744D01*
X194658665Y-125190939D01*
X194676136Y-125182380D01*
X194695871Y-125174568D01*
X194735177Y-125146010D01*
X194740043Y-125142813D01*
X194781865Y-125118081D01*
X194796870Y-125103075D01*
X194811668Y-125090436D01*
X194828837Y-125077963D01*
X194859809Y-125040522D01*
X194863713Y-125036231D01*
X195723127Y-124176818D01*
X195784450Y-124143333D01*
X195810808Y-124140499D01*
X197087871Y-124140499D01*
X197087872Y-124140499D01*
X197147483Y-124134091D01*
X197282331Y-124083796D01*
X197397546Y-123997546D01*
X197483796Y-123882331D01*
X197534091Y-123747483D01*
X197540500Y-123687873D01*
X197540499Y-121974499D01*
X197560184Y-121907461D01*
X197612987Y-121861706D01*
X197664499Y-121850500D01*
X197914495Y-121850500D01*
X197930505Y-121852267D01*
X197930528Y-121852026D01*
X197938289Y-121852758D01*
X197938296Y-121852760D01*
X198010203Y-121850500D01*
X198040925Y-121850500D01*
X198048190Y-121849581D01*
X198054016Y-121849122D01*
X198102569Y-121847597D01*
X198122956Y-121841673D01*
X198141996Y-121837731D01*
X198163058Y-121835071D01*
X198208235Y-121817183D01*
X198213735Y-121815300D01*
X198260398Y-121801744D01*
X198278665Y-121790939D01*
X198296136Y-121782380D01*
X198315871Y-121774568D01*
X198355177Y-121746010D01*
X198360043Y-121742813D01*
X198401865Y-121718081D01*
X198416870Y-121703075D01*
X198431668Y-121690436D01*
X198448837Y-121677963D01*
X198479809Y-121640522D01*
X198483723Y-121636221D01*
X199499513Y-120620431D01*
X199512079Y-120610365D01*
X199511925Y-120610178D01*
X199517937Y-120605204D01*
X199517937Y-120605203D01*
X199517940Y-120605202D01*
X199567190Y-120552755D01*
X199588911Y-120531035D01*
X199593401Y-120525245D01*
X199597183Y-120520815D01*
X199630448Y-120485393D01*
X199640670Y-120466796D01*
X199651348Y-120450539D01*
X199664362Y-120433764D01*
X199683664Y-120389157D01*
X199686208Y-120383963D01*
X199709627Y-120341368D01*
X199714906Y-120320808D01*
X199721209Y-120302399D01*
X199729636Y-120282926D01*
X199737235Y-120234945D01*
X199738417Y-120229234D01*
X199750500Y-120182177D01*
X199750500Y-120160955D01*
X199752027Y-120141555D01*
X199755347Y-120120595D01*
X199750775Y-120072230D01*
X199750500Y-120066392D01*
X199750500Y-110485502D01*
X199752268Y-110469489D01*
X199752026Y-110469467D01*
X199752758Y-110461711D01*
X199752760Y-110461704D01*
X199750500Y-110389796D01*
X199750500Y-110359075D01*
X199749579Y-110351788D01*
X199749122Y-110345979D01*
X199749023Y-110342815D01*
X199747597Y-110297431D01*
X199741676Y-110277053D01*
X199737731Y-110258004D01*
X199735071Y-110236942D01*
X199717185Y-110191769D01*
X199715296Y-110186249D01*
X199701743Y-110139600D01*
X199690940Y-110121334D01*
X199682378Y-110103856D01*
X199674568Y-110084129D01*
X199674565Y-110084125D01*
X199664677Y-110070515D01*
X199646014Y-110044827D01*
X199642811Y-110039951D01*
X199621512Y-110003937D01*
X199618081Y-109998135D01*
X199618079Y-109998133D01*
X199618077Y-109998129D01*
X199613298Y-109991968D01*
X199615453Y-109990295D01*
X199588237Y-109940452D01*
X199586182Y-109927973D01*
X199585368Y-109920745D01*
X199525789Y-109750478D01*
X199429816Y-109597738D01*
X199302262Y-109470184D01*
X199281912Y-109457397D01*
X199149523Y-109374211D01*
X198979254Y-109314631D01*
X198979249Y-109314630D01*
X198800004Y-109294435D01*
X198799996Y-109294435D01*
X198620750Y-109314630D01*
X198620745Y-109314631D01*
X198450476Y-109374211D01*
X198297737Y-109470184D01*
X198170184Y-109597737D01*
X198074211Y-109750476D01*
X198014631Y-109920745D01*
X198014630Y-109920750D01*
X197994435Y-110099996D01*
X197994435Y-110100003D01*
X198014630Y-110279249D01*
X198014631Y-110279254D01*
X198074211Y-110449523D01*
X198170184Y-110602262D01*
X198297740Y-110729818D01*
X198353345Y-110764756D01*
X198386150Y-110785369D01*
X198391471Y-110788712D01*
X198437763Y-110841046D01*
X198449500Y-110893706D01*
X198449500Y-119779192D01*
X198429815Y-119846231D01*
X198413181Y-119866873D01*
X197766873Y-120513181D01*
X197705550Y-120546666D01*
X197679192Y-120549500D01*
X190245506Y-120549500D01*
X190229495Y-120547732D01*
X190229473Y-120547974D01*
X190221706Y-120547239D01*
X190149783Y-120549500D01*
X190119075Y-120549500D01*
X190119071Y-120549500D01*
X190119060Y-120549501D01*
X190111804Y-120550417D01*
X190105986Y-120550875D01*
X190057433Y-120552401D01*
X190042873Y-120556630D01*
X190037040Y-120558325D01*
X190017996Y-120562269D01*
X189996942Y-120564929D01*
X189996940Y-120564929D01*
X189951781Y-120582808D01*
X189946255Y-120584700D01*
X189899601Y-120598254D01*
X189881325Y-120609063D01*
X189863860Y-120617619D01*
X189844124Y-120625433D01*
X189804824Y-120653986D01*
X189799942Y-120657193D01*
X189758136Y-120681917D01*
X189743124Y-120696929D01*
X189728336Y-120709558D01*
X189711167Y-120722032D01*
X189711165Y-120722034D01*
X189680194Y-120759470D01*
X189676262Y-120763791D01*
X188997762Y-121442290D01*
X188936439Y-121475775D01*
X188877989Y-121474384D01*
X188805416Y-121454939D01*
X188805412Y-121454938D01*
X188805408Y-121454937D01*
X188805406Y-121454936D01*
X188805403Y-121454936D01*
X188570001Y-121434341D01*
X188569999Y-121434341D01*
X188334596Y-121454936D01*
X188334586Y-121454938D01*
X188106344Y-121516094D01*
X188106335Y-121516098D01*
X187892171Y-121615964D01*
X187892169Y-121615965D01*
X187698597Y-121751505D01*
X187531508Y-121918594D01*
X187401269Y-122104595D01*
X187346692Y-122148219D01*
X187277193Y-122155412D01*
X187214839Y-122123890D01*
X187198119Y-122104594D01*
X187068113Y-121918926D01*
X187068108Y-121918920D01*
X186901082Y-121751894D01*
X186707578Y-121616399D01*
X186493492Y-121516570D01*
X186493486Y-121516567D01*
X186280000Y-121459364D01*
X186280000Y-122354498D01*
X186172315Y-122305320D01*
X186065763Y-122290000D01*
X185994237Y-122290000D01*
X185887685Y-122305320D01*
X185780000Y-122354498D01*
X185780000Y-121459364D01*
X185779999Y-121459364D01*
X185566513Y-121516567D01*
X185566507Y-121516570D01*
X185352422Y-121616399D01*
X185352420Y-121616400D01*
X185158926Y-121751886D01*
X185158920Y-121751891D01*
X184991891Y-121918920D01*
X184991890Y-121918922D01*
X184861880Y-122104595D01*
X184807303Y-122148219D01*
X184737804Y-122155412D01*
X184675450Y-122123890D01*
X184658730Y-122104594D01*
X184528494Y-121918597D01*
X184361402Y-121751506D01*
X184361395Y-121751501D01*
X184167834Y-121615967D01*
X184167830Y-121615965D01*
X184125592Y-121596269D01*
X183953663Y-121516097D01*
X183953659Y-121516096D01*
X183953655Y-121516094D01*
X183725413Y-121454938D01*
X183725403Y-121454936D01*
X183490001Y-121434341D01*
X183489999Y-121434341D01*
X183254596Y-121454936D01*
X183254586Y-121454938D01*
X183026344Y-121516094D01*
X183026335Y-121516098D01*
X182812171Y-121615964D01*
X182812169Y-121615965D01*
X182618597Y-121751505D01*
X182451508Y-121918594D01*
X182321269Y-122104595D01*
X182266692Y-122148219D01*
X182197193Y-122155412D01*
X182134839Y-122123890D01*
X182118119Y-122104594D01*
X181988113Y-121918926D01*
X181988108Y-121918920D01*
X181821082Y-121751894D01*
X181627578Y-121616399D01*
X181413492Y-121516570D01*
X181413486Y-121516567D01*
X181200000Y-121459364D01*
X181200000Y-122354498D01*
X181092315Y-122305320D01*
X180985763Y-122290000D01*
X180914237Y-122290000D01*
X180807685Y-122305320D01*
X180700000Y-122354498D01*
X180700000Y-121459364D01*
X180699999Y-121459364D01*
X180486513Y-121516567D01*
X180486507Y-121516570D01*
X180272422Y-121616399D01*
X180272420Y-121616400D01*
X180078926Y-121751886D01*
X180078920Y-121751891D01*
X179911891Y-121918920D01*
X179911890Y-121918922D01*
X179781880Y-122104595D01*
X179727303Y-122148219D01*
X179657804Y-122155412D01*
X179595450Y-122123890D01*
X179578730Y-122104594D01*
X179448494Y-121918597D01*
X179281402Y-121751506D01*
X179281395Y-121751501D01*
X179087834Y-121615967D01*
X179087830Y-121615965D01*
X179045592Y-121596269D01*
X178873663Y-121516097D01*
X178873659Y-121516096D01*
X178873655Y-121516094D01*
X178645413Y-121454938D01*
X178645403Y-121454936D01*
X178410001Y-121434341D01*
X178409999Y-121434341D01*
X178174596Y-121454936D01*
X178174586Y-121454938D01*
X177946344Y-121516094D01*
X177946335Y-121516098D01*
X177732171Y-121615964D01*
X177732169Y-121615965D01*
X177538597Y-121751505D01*
X177371508Y-121918594D01*
X177241269Y-122104595D01*
X177186692Y-122148219D01*
X177117193Y-122155412D01*
X177054839Y-122123890D01*
X177038119Y-122104594D01*
X176908113Y-121918926D01*
X176908108Y-121918920D01*
X176741082Y-121751894D01*
X176547578Y-121616399D01*
X176333492Y-121516570D01*
X176333486Y-121516567D01*
X176120000Y-121459364D01*
X176120000Y-122354498D01*
X176012315Y-122305320D01*
X175905763Y-122290000D01*
X175834237Y-122290000D01*
X175727685Y-122305320D01*
X175620000Y-122354498D01*
X175620000Y-121459364D01*
X175619999Y-121459364D01*
X175406513Y-121516567D01*
X175406507Y-121516570D01*
X175192422Y-121616399D01*
X175192420Y-121616400D01*
X174998926Y-121751886D01*
X174998920Y-121751891D01*
X174831891Y-121918920D01*
X174831890Y-121918922D01*
X174701880Y-122104595D01*
X174647303Y-122148219D01*
X174577804Y-122155412D01*
X174515450Y-122123890D01*
X174498730Y-122104594D01*
X174368494Y-121918597D01*
X174201402Y-121751506D01*
X174201395Y-121751501D01*
X174007831Y-121615965D01*
X174007829Y-121615964D01*
X173965595Y-121596270D01*
X173913156Y-121550097D01*
X173894000Y-121483888D01*
X173894000Y-118754979D01*
X173913685Y-118687940D01*
X173930319Y-118667298D01*
X176397298Y-116200319D01*
X176458621Y-116166834D01*
X176484979Y-116164000D01*
X190023231Y-116164000D01*
X190031328Y-116164530D01*
X190064265Y-116168867D01*
X190064266Y-116168867D01*
X190079707Y-116166834D01*
X190211499Y-116149483D01*
X190348698Y-116092653D01*
X190364618Y-116080436D01*
X190429786Y-116055241D01*
X190498232Y-116069278D01*
X190545099Y-116112838D01*
X190570184Y-116152760D01*
X190697738Y-116280314D01*
X190850478Y-116376287D01*
X191020745Y-116435866D01*
X191020750Y-116435867D01*
X191199996Y-116456063D01*
X191200000Y-116456063D01*
X191200004Y-116456063D01*
X191379249Y-116435867D01*
X191379252Y-116435866D01*
X191379255Y-116435866D01*
X191549522Y-116376287D01*
X191702262Y-116280314D01*
X191829816Y-116152760D01*
X191925789Y-116000020D01*
X191958199Y-115907395D01*
X191987557Y-115860671D01*
X192433138Y-115415090D01*
X192439223Y-115409754D01*
X192465585Y-115389528D01*
X192488284Y-115359946D01*
X192555989Y-115271711D01*
X192612818Y-115134512D01*
X192632203Y-114987278D01*
X192627865Y-114954334D01*
X192627335Y-114946234D01*
X192627335Y-114561491D01*
X192627866Y-114553389D01*
X192632202Y-114520457D01*
X192625910Y-114472668D01*
X192612818Y-114373224D01*
X192555988Y-114236025D01*
X192555987Y-114236024D01*
X192555987Y-114236023D01*
X192465586Y-114118209D01*
X192439224Y-114097979D01*
X192433121Y-114092628D01*
X192364672Y-114024179D01*
X192331189Y-113962859D01*
X192336173Y-113893167D01*
X192378044Y-113837233D01*
X192443508Y-113812816D01*
X192452355Y-113812500D01*
X192522828Y-113812500D01*
X192522844Y-113812499D01*
X192582372Y-113806098D01*
X192582379Y-113806096D01*
X192717086Y-113755854D01*
X192717093Y-113755850D01*
X192832187Y-113669690D01*
X192832190Y-113669687D01*
X192918350Y-113554593D01*
X192918354Y-113554586D01*
X192968596Y-113419879D01*
X192968598Y-113419872D01*
X192974999Y-113360344D01*
X192975000Y-113360327D01*
X192975000Y-113108104D01*
X192975390Y-113101156D01*
X192979746Y-113062500D01*
X192979746Y-113062499D01*
X192975390Y-113023843D01*
X192975000Y-113016895D01*
X192975000Y-112337500D01*
X192828552Y-112337500D01*
X192872708Y-112381656D01*
X192906193Y-112442979D01*
X192901209Y-112512671D01*
X192872709Y-112557017D01*
X192854728Y-112574998D01*
X192854728Y-112575000D01*
X192872708Y-112592980D01*
X192906194Y-112654303D01*
X192901210Y-112723994D01*
X192872709Y-112768343D01*
X192225000Y-113416053D01*
X192061129Y-113579923D01*
X191999805Y-113613407D01*
X191930114Y-113608423D01*
X191925995Y-113606802D01*
X191861103Y-113579923D01*
X191790111Y-113550517D01*
X191679845Y-113536000D01*
X191658319Y-113533166D01*
X191642878Y-113531133D01*
X191642877Y-113531133D01*
X191609940Y-113535469D01*
X191601843Y-113536000D01*
X191421309Y-113536000D01*
X191354270Y-113516315D01*
X191333628Y-113499681D01*
X191250000Y-113416053D01*
X191166372Y-113499681D01*
X191105049Y-113533166D01*
X191078691Y-113536000D01*
X190446309Y-113536000D01*
X190379270Y-113516315D01*
X190358628Y-113499681D01*
X189921447Y-113062500D01*
X190119709Y-113062500D01*
X190140514Y-113140145D01*
X190197355Y-113196986D01*
X190255254Y-113212500D01*
X190294746Y-113212500D01*
X190352645Y-113196986D01*
X190409486Y-113140146D01*
X190430291Y-113062500D01*
X190628553Y-113062500D01*
X190762500Y-113196447D01*
X190896447Y-113062500D01*
X191094709Y-113062500D01*
X191115514Y-113140145D01*
X191172355Y-113196986D01*
X191230254Y-113212500D01*
X191269746Y-113212500D01*
X191327645Y-113196986D01*
X191384486Y-113140146D01*
X191405291Y-113062500D01*
X191603553Y-113062500D01*
X191737500Y-113196447D01*
X191871447Y-113062500D01*
X192069709Y-113062500D01*
X192090514Y-113140145D01*
X192147355Y-113196986D01*
X192205254Y-113212500D01*
X192244746Y-113212500D01*
X192302645Y-113196986D01*
X192359486Y-113140146D01*
X192380291Y-113062500D01*
X192359486Y-112984855D01*
X192302645Y-112928014D01*
X192244746Y-112912500D01*
X192205254Y-112912500D01*
X192147355Y-112928014D01*
X192090514Y-112984854D01*
X192069709Y-113062500D01*
X191871447Y-113062500D01*
X191737500Y-112928553D01*
X191603553Y-113062500D01*
X191405291Y-113062500D01*
X191384486Y-112984855D01*
X191327645Y-112928014D01*
X191269746Y-112912500D01*
X191230254Y-112912500D01*
X191172355Y-112928014D01*
X191115514Y-112984854D01*
X191094709Y-113062500D01*
X190896447Y-113062500D01*
X190762500Y-112928553D01*
X190628553Y-113062500D01*
X190430291Y-113062500D01*
X190409486Y-112984855D01*
X190352645Y-112928014D01*
X190294746Y-112912500D01*
X190255254Y-112912500D01*
X190197355Y-112928014D01*
X190140514Y-112984854D01*
X190119709Y-113062500D01*
X189921447Y-113062500D01*
X189627290Y-112768343D01*
X189593805Y-112707020D01*
X189598789Y-112637328D01*
X189627290Y-112592981D01*
X189645271Y-112575000D01*
X190141053Y-112575000D01*
X190275000Y-112708947D01*
X190408947Y-112575000D01*
X191116053Y-112575000D01*
X191250000Y-112708947D01*
X191383947Y-112575000D01*
X192091053Y-112575000D01*
X192225000Y-112708947D01*
X192358947Y-112575000D01*
X192225000Y-112441053D01*
X192091053Y-112575000D01*
X191383947Y-112575000D01*
X191250000Y-112441053D01*
X191116053Y-112575000D01*
X190408947Y-112575000D01*
X190275000Y-112441053D01*
X190141053Y-112575000D01*
X189645271Y-112575000D01*
X189627290Y-112557019D01*
X189593805Y-112495696D01*
X189598789Y-112426004D01*
X189627290Y-112381656D01*
X189671446Y-112337500D01*
X189525000Y-112337500D01*
X189525000Y-113016895D01*
X189524610Y-113023843D01*
X189520254Y-113062499D01*
X189520254Y-113062500D01*
X189524610Y-113101156D01*
X189525000Y-113108104D01*
X189525000Y-113228021D01*
X189505315Y-113295060D01*
X189452511Y-113340815D01*
X189383353Y-113350759D01*
X189319797Y-113321734D01*
X189313319Y-113315702D01*
X189100319Y-113102702D01*
X189066834Y-113041379D01*
X189064000Y-113015021D01*
X189064000Y-112533446D01*
X189083007Y-112467473D01*
X189122374Y-112404821D01*
X189181954Y-112234551D01*
X189181955Y-112234546D01*
X189198523Y-112087500D01*
X190119709Y-112087500D01*
X190140514Y-112165145D01*
X190197355Y-112221986D01*
X190255254Y-112237500D01*
X190294746Y-112237500D01*
X190352645Y-112221986D01*
X190409486Y-112165146D01*
X190430291Y-112087500D01*
X191094709Y-112087500D01*
X191115514Y-112165145D01*
X191172355Y-112221986D01*
X191230254Y-112237500D01*
X191269746Y-112237500D01*
X191327645Y-112221986D01*
X191384486Y-112165146D01*
X191405291Y-112087500D01*
X192069709Y-112087500D01*
X192090514Y-112165145D01*
X192147355Y-112221986D01*
X192205254Y-112237500D01*
X192244746Y-112237500D01*
X192302645Y-112221986D01*
X192359486Y-112165146D01*
X192380291Y-112087500D01*
X192359486Y-112009855D01*
X192302645Y-111953014D01*
X192244746Y-111937500D01*
X192205254Y-111937500D01*
X192147355Y-111953014D01*
X192090514Y-112009854D01*
X192069709Y-112087500D01*
X191405291Y-112087500D01*
X191384486Y-112009855D01*
X191327645Y-111953014D01*
X191269746Y-111937500D01*
X191230254Y-111937500D01*
X191172355Y-111953014D01*
X191115514Y-112009854D01*
X191094709Y-112087500D01*
X190430291Y-112087500D01*
X190409486Y-112009855D01*
X190352645Y-111953014D01*
X190294746Y-111937500D01*
X190255254Y-111937500D01*
X190197355Y-111953014D01*
X190140514Y-112009854D01*
X190119709Y-112087500D01*
X189198523Y-112087500D01*
X189202151Y-112055300D01*
X189202151Y-112055293D01*
X189181955Y-111876047D01*
X189181954Y-111876042D01*
X189153016Y-111793342D01*
X189122375Y-111705775D01*
X189026402Y-111553035D01*
X188898848Y-111425481D01*
X188868888Y-111406656D01*
X188746109Y-111329508D01*
X188575840Y-111269928D01*
X188575835Y-111269927D01*
X188396590Y-111249732D01*
X188396582Y-111249732D01*
X188217336Y-111269927D01*
X188217331Y-111269928D01*
X188047062Y-111329508D01*
X187894323Y-111425481D01*
X187766770Y-111553034D01*
X187670797Y-111705773D01*
X187611217Y-111876042D01*
X187611216Y-111876047D01*
X187591021Y-112055293D01*
X187591021Y-112055300D01*
X187611216Y-112234546D01*
X187611217Y-112234551D01*
X187670797Y-112404820D01*
X187710165Y-112467473D01*
X187766770Y-112557559D01*
X187846539Y-112637328D01*
X187899249Y-112690038D01*
X187897083Y-112692203D01*
X187929436Y-112738255D01*
X187936000Y-112778064D01*
X187936000Y-113258963D01*
X187935468Y-113267064D01*
X187931133Y-113300000D01*
X187936000Y-113336968D01*
X187936507Y-113340815D01*
X187950517Y-113447233D01*
X187950517Y-113447234D01*
X188007347Y-113584434D01*
X188072766Y-113669690D01*
X188097750Y-113702250D01*
X188124110Y-113722477D01*
X188130200Y-113727817D01*
X188426565Y-114024182D01*
X188626702Y-114224319D01*
X188660187Y-114285642D01*
X188655203Y-114355334D01*
X188613331Y-114411267D01*
X188547867Y-114435684D01*
X188539021Y-114436000D01*
X187019440Y-114436000D01*
X186952401Y-114416315D01*
X186931759Y-114399681D01*
X186902262Y-114370184D01*
X186749523Y-114274211D01*
X186579254Y-114214631D01*
X186579249Y-114214630D01*
X186400004Y-114194435D01*
X186399996Y-114194435D01*
X186220750Y-114214630D01*
X186220745Y-114214631D01*
X186050476Y-114274211D01*
X185897737Y-114370184D01*
X185770184Y-114497737D01*
X185674211Y-114650476D01*
X185614631Y-114820745D01*
X185614630Y-114820749D01*
X185602785Y-114925884D01*
X185575718Y-114990298D01*
X185518124Y-115029853D01*
X185479565Y-115036000D01*
X176241034Y-115036000D01*
X176232936Y-115035469D01*
X176200000Y-115031133D01*
X176199999Y-115031133D01*
X176052766Y-115050517D01*
X176052765Y-115050517D01*
X175915567Y-115107346D01*
X175844675Y-115161744D01*
X175797746Y-115197753D01*
X175777523Y-115224108D01*
X175772171Y-115230211D01*
X174105681Y-116896701D01*
X174044358Y-116930186D01*
X173974666Y-116925202D01*
X173918733Y-116883330D01*
X173894316Y-116817866D01*
X173894000Y-116809020D01*
X173894000Y-112971034D01*
X173894531Y-112962933D01*
X173898867Y-112930000D01*
X173898867Y-112929999D01*
X173896563Y-112912500D01*
X173879483Y-112782766D01*
X173822653Y-112645567D01*
X173791356Y-112604780D01*
X173732249Y-112527748D01*
X173705884Y-112507518D01*
X173699781Y-112502165D01*
X172623097Y-111425481D01*
X171527817Y-110330200D01*
X171522477Y-110324110D01*
X171502250Y-110297750D01*
X171502248Y-110297749D01*
X171502248Y-110297748D01*
X171460182Y-110265471D01*
X171384432Y-110207346D01*
X171330385Y-110184959D01*
X171290157Y-110158079D01*
X171202262Y-110070184D01*
X171090570Y-110000003D01*
X185994435Y-110000003D01*
X186014630Y-110179249D01*
X186014631Y-110179254D01*
X186074211Y-110349523D01*
X186149591Y-110469489D01*
X186170184Y-110502262D01*
X186297738Y-110629816D01*
X186388080Y-110686582D01*
X186409417Y-110699989D01*
X186450478Y-110725789D01*
X186620745Y-110785368D01*
X186620750Y-110785369D01*
X186799996Y-110805565D01*
X186800000Y-110805565D01*
X186800004Y-110805565D01*
X186979249Y-110785369D01*
X186979252Y-110785368D01*
X186979255Y-110785368D01*
X187149522Y-110725789D01*
X187275700Y-110646505D01*
X187341672Y-110627500D01*
X189407077Y-110627500D01*
X189474116Y-110647185D01*
X189519871Y-110699989D01*
X189530366Y-110764756D01*
X189525000Y-110814655D01*
X189525000Y-111066895D01*
X189524610Y-111073843D01*
X189520254Y-111112499D01*
X189520254Y-111112500D01*
X189524610Y-111151156D01*
X189525000Y-111158104D01*
X189525000Y-111837500D01*
X189671447Y-111837500D01*
X189671447Y-111837499D01*
X189627290Y-111793342D01*
X189593805Y-111732019D01*
X189598789Y-111662327D01*
X189627291Y-111617979D01*
X189645269Y-111600000D01*
X190141053Y-111600000D01*
X190275000Y-111733947D01*
X190408947Y-111600000D01*
X191116053Y-111600000D01*
X191250000Y-111733947D01*
X191383947Y-111600000D01*
X192091053Y-111600000D01*
X192225000Y-111733947D01*
X192358947Y-111600000D01*
X192225000Y-111466053D01*
X192091053Y-111600000D01*
X191383947Y-111600000D01*
X191250000Y-111466053D01*
X191116053Y-111600000D01*
X190408947Y-111600000D01*
X190275000Y-111466053D01*
X190141053Y-111600000D01*
X189645269Y-111600000D01*
X189645270Y-111599999D01*
X189627290Y-111582019D01*
X189593805Y-111520696D01*
X189598789Y-111451004D01*
X189627290Y-111406657D01*
X189921447Y-111112500D01*
X190119709Y-111112500D01*
X190140514Y-111190145D01*
X190197355Y-111246986D01*
X190255254Y-111262500D01*
X190294746Y-111262500D01*
X190352645Y-111246986D01*
X190409486Y-111190146D01*
X190430291Y-111112500D01*
X190628553Y-111112500D01*
X190762500Y-111246447D01*
X190896447Y-111112500D01*
X191094709Y-111112500D01*
X191115514Y-111190145D01*
X191172355Y-111246986D01*
X191230254Y-111262500D01*
X191269746Y-111262500D01*
X191327645Y-111246986D01*
X191384486Y-111190146D01*
X191405291Y-111112500D01*
X191603553Y-111112500D01*
X191737500Y-111246447D01*
X191871447Y-111112500D01*
X192069709Y-111112500D01*
X192090514Y-111190145D01*
X192147355Y-111246986D01*
X192205254Y-111262500D01*
X192244746Y-111262500D01*
X192302645Y-111246986D01*
X192359486Y-111190146D01*
X192380291Y-111112500D01*
X192359486Y-111034855D01*
X192302645Y-110978014D01*
X192244746Y-110962500D01*
X192205254Y-110962500D01*
X192147355Y-110978014D01*
X192090514Y-111034854D01*
X192069709Y-111112500D01*
X191871447Y-111112500D01*
X191737500Y-110978553D01*
X191603553Y-111112500D01*
X191405291Y-111112500D01*
X191384486Y-111034855D01*
X191327645Y-110978014D01*
X191269746Y-110962500D01*
X191230254Y-110962500D01*
X191172355Y-110978014D01*
X191115514Y-111034854D01*
X191094709Y-111112500D01*
X190896447Y-111112500D01*
X190762500Y-110978553D01*
X190628553Y-111112500D01*
X190430291Y-111112500D01*
X190409486Y-111034855D01*
X190352645Y-110978014D01*
X190294746Y-110962500D01*
X190255254Y-110962500D01*
X190197355Y-110978014D01*
X190140514Y-111034854D01*
X190119709Y-111112500D01*
X189921447Y-111112500D01*
X190370128Y-110663819D01*
X190431451Y-110630334D01*
X190457809Y-110627500D01*
X190821681Y-110627500D01*
X190837329Y-110629227D01*
X190837356Y-110628946D01*
X190845123Y-110629680D01*
X190845124Y-110629679D01*
X190845125Y-110629680D01*
X190914508Y-110627500D01*
X190944124Y-110627500D01*
X190951026Y-110626627D01*
X190956838Y-110626169D01*
X191003591Y-110624701D01*
X191020076Y-110619911D01*
X191089944Y-110620106D01*
X191142357Y-110651304D01*
X191250000Y-110758947D01*
X191544157Y-110464790D01*
X191605480Y-110431305D01*
X191675172Y-110436289D01*
X191719519Y-110464790D01*
X191737500Y-110482771D01*
X191755481Y-110464790D01*
X191816804Y-110431305D01*
X191886496Y-110436289D01*
X191930843Y-110464790D01*
X192872709Y-111406656D01*
X192906194Y-111467979D01*
X192901210Y-111537671D01*
X192872709Y-111582018D01*
X192854728Y-111599999D01*
X192854728Y-111600001D01*
X192872708Y-111617981D01*
X192906193Y-111679304D01*
X192901209Y-111748996D01*
X192872709Y-111793343D01*
X192828552Y-111837499D01*
X192828553Y-111837500D01*
X192975000Y-111837500D01*
X192975000Y-111158104D01*
X192975390Y-111151156D01*
X192979746Y-111112500D01*
X192979746Y-111112499D01*
X192975390Y-111073843D01*
X192975000Y-111066895D01*
X192975000Y-110814672D01*
X192974999Y-110814655D01*
X192968598Y-110755127D01*
X192968596Y-110755120D01*
X192918354Y-110620413D01*
X192918350Y-110620406D01*
X192832190Y-110505312D01*
X192832187Y-110505309D01*
X192717093Y-110419149D01*
X192717086Y-110419145D01*
X192582379Y-110368903D01*
X192582372Y-110368901D01*
X192522844Y-110362500D01*
X192270605Y-110362500D01*
X192263657Y-110362110D01*
X192225002Y-110357754D01*
X192224998Y-110357754D01*
X192186343Y-110362110D01*
X192179395Y-110362500D01*
X191728928Y-110362500D01*
X191661889Y-110342815D01*
X191616134Y-110290011D01*
X191606190Y-110220853D01*
X191635215Y-110157297D01*
X191641246Y-110150820D01*
X191652466Y-110139600D01*
X191688066Y-110103999D01*
X191749387Y-110070515D01*
X191761845Y-110068463D01*
X191805755Y-110063516D01*
X191976022Y-110003937D01*
X192128762Y-109907964D01*
X192256316Y-109780410D01*
X192352289Y-109627670D01*
X192411868Y-109457403D01*
X192411869Y-109457397D01*
X192432065Y-109278151D01*
X192432065Y-109278144D01*
X192411869Y-109098898D01*
X192411868Y-109098893D01*
X192352288Y-108928624D01*
X192256315Y-108775885D01*
X192128762Y-108648332D01*
X191976023Y-108552359D01*
X191805754Y-108492779D01*
X191805749Y-108492778D01*
X191626504Y-108472583D01*
X191626496Y-108472583D01*
X191447250Y-108492778D01*
X191447245Y-108492779D01*
X191276976Y-108552359D01*
X191124237Y-108648332D01*
X190996684Y-108775885D01*
X190900710Y-108928626D01*
X190841132Y-109098893D01*
X190836186Y-109142785D01*
X190809118Y-109207199D01*
X190800648Y-109216580D01*
X190681046Y-109336182D01*
X190619726Y-109369666D01*
X190593367Y-109372500D01*
X187341672Y-109372500D01*
X187275700Y-109353494D01*
X187149523Y-109274211D01*
X186979254Y-109214631D01*
X186979249Y-109214630D01*
X186800004Y-109194435D01*
X186799996Y-109194435D01*
X186620750Y-109214630D01*
X186620745Y-109214631D01*
X186450476Y-109274211D01*
X186297737Y-109370184D01*
X186170184Y-109497737D01*
X186074211Y-109650476D01*
X186014631Y-109820745D01*
X186014630Y-109820750D01*
X185994435Y-109999996D01*
X185994435Y-110000003D01*
X171090570Y-110000003D01*
X171049523Y-109974211D01*
X170879254Y-109914631D01*
X170879249Y-109914630D01*
X170700004Y-109894435D01*
X170699996Y-109894435D01*
X170520750Y-109914630D01*
X170520745Y-109914631D01*
X170350476Y-109974211D01*
X170197737Y-110070184D01*
X170070184Y-110197737D01*
X169974211Y-110350476D01*
X169914631Y-110520745D01*
X169914630Y-110520750D01*
X169894435Y-110699996D01*
X169894435Y-110700003D01*
X168300500Y-110700003D01*
X168300500Y-103424500D01*
X168320185Y-103357461D01*
X168372989Y-103311706D01*
X168424500Y-103300500D01*
X168943827Y-103300500D01*
X200575500Y-103300500D01*
X200642539Y-103320185D01*
G37*
%TD.AperFunction*%
%TD*%
M02*
