%TF.GenerationSoftware,KiCad,Pcbnew,7.0.9-7.0.9~ubuntu22.04.1*%
%TF.CreationDate,2023-11-27T21:35:54+01:00*%
%TF.ProjectId,ohe_power_supply_1,6f68655f-706f-4776-9572-5f737570706c,rev?*%
%TF.SameCoordinates,Original*%
%TF.FileFunction,Drillmap*%
%TF.FilePolarity,Positive*%
%FSLAX45Y45*%
G04 Gerber Fmt 4.5, Leading zero omitted, Abs format (unit mm)*
G04 Created by KiCad (PCBNEW 7.0.9-7.0.9~ubuntu22.04.1) date 2023-11-27 21:35:54*
%MOMM*%
%LPD*%
G01*
G04 APERTURE LIST*
%ADD10C,0.100000*%
%ADD11C,0.200000*%
G04 APERTURE END LIST*
D10*
X16800000Y-10300000D02*
X16900000Y-10300000D01*
X16800000Y-12600000D02*
X16800000Y-10300000D01*
X20100000Y-12600000D02*
X16800000Y-12600000D01*
X20100000Y-12560000D02*
X20100000Y-12600000D01*
X20100000Y-10300000D02*
X20100000Y-12560000D01*
X16900000Y-10300000D02*
X20100000Y-10300000D01*
D11*
D10*
X17055000Y-11055000D02*
X17085000Y-11085000D01*
X17085000Y-11055000D02*
X17055000Y-11085000D01*
X17175000Y-11995000D02*
X17205000Y-12025000D01*
X17205000Y-11995000D02*
X17175000Y-12025000D01*
X17465000Y-11525000D02*
X17495000Y-11555000D01*
X17495000Y-11525000D02*
X17465000Y-11555000D01*
X17745000Y-11155000D02*
X17775000Y-11185000D01*
X17775000Y-11155000D02*
X17745000Y-11185000D01*
X18145000Y-12445000D02*
X18175000Y-12475000D01*
X18175000Y-12445000D02*
X18145000Y-12475000D01*
X18515000Y-11395000D02*
X18545000Y-11425000D01*
X18545000Y-11395000D02*
X18515000Y-11425000D01*
X18625000Y-11485000D02*
X18655000Y-11515000D01*
X18655000Y-11485000D02*
X18625000Y-11515000D01*
X18665000Y-10985000D02*
X18695000Y-11015000D01*
X18695000Y-10985000D02*
X18665000Y-11015000D01*
X18818400Y-11060016D02*
X18848400Y-11090016D01*
X18848400Y-11060016D02*
X18818400Y-11090016D01*
X18824659Y-11190530D02*
X18854659Y-11220530D01*
X18854659Y-11190530D02*
X18824659Y-11220530D01*
X18939314Y-11472731D02*
X18969314Y-11502731D01*
X18969314Y-11472731D02*
X18939314Y-11502731D01*
X19028027Y-11508399D02*
X19058027Y-11538399D01*
X19058027Y-11508399D02*
X19028027Y-11538399D01*
X19105000Y-11550050D02*
X19135000Y-11580050D01*
X19135000Y-11550050D02*
X19105000Y-11580050D01*
X19134984Y-11460387D02*
X19164984Y-11490387D01*
X19164984Y-11460387D02*
X19134984Y-11490387D01*
X19147650Y-10912815D02*
X19177650Y-10942815D01*
X19177650Y-10912815D02*
X19147650Y-10942815D01*
X19275000Y-10875000D02*
X19305000Y-10905000D01*
X19305000Y-10875000D02*
X19275000Y-10905000D01*
X19435000Y-10735000D02*
X19465000Y-10765000D01*
X19465000Y-10735000D02*
X19435000Y-10765000D01*
X19865000Y-10995000D02*
X19895000Y-11025000D01*
X19895000Y-10995000D02*
X19865000Y-11025000D01*
X19985000Y-11985000D02*
X20015000Y-12015000D01*
X20015000Y-11985000D02*
X19985000Y-12015000D01*
X19985000Y-12085000D02*
X20015000Y-12115000D01*
X20015000Y-12085000D02*
X19985000Y-12115000D01*
X19985000Y-12185000D02*
X20015000Y-12215000D01*
X20015000Y-12185000D02*
X19985000Y-12215000D01*
X19985000Y-12285000D02*
X20015000Y-12315000D01*
X20015000Y-12285000D02*
X19985000Y-12315000D01*
X19042500Y-11111250D02*
G75*
G03*
X19042500Y-11111250I-15000J0D01*
G01*
X19042500Y-11208750D02*
G75*
G03*
X19042500Y-11208750I-15000J0D01*
G01*
X19042500Y-11306250D02*
G75*
G03*
X19042500Y-11306250I-15000J0D01*
G01*
X19140000Y-11111250D02*
G75*
G03*
X19140000Y-11111250I-15000J0D01*
G01*
X19140000Y-11208750D02*
G75*
G03*
X19140000Y-11208750I-15000J0D01*
G01*
X19140000Y-11306250D02*
G75*
G03*
X19140000Y-11306250I-15000J0D01*
G01*
X19237500Y-11111250D02*
G75*
G03*
X19237500Y-11111250I-15000J0D01*
G01*
X19237500Y-11208750D02*
G75*
G03*
X19237500Y-11208750I-15000J0D01*
G01*
X19237500Y-11306250D02*
G75*
G03*
X19237500Y-11306250I-15000J0D01*
G01*
X17333000Y-12229000D02*
X17333000Y-12329000D01*
X17283000Y-12279000D02*
X17383000Y-12279000D01*
X17587000Y-12229000D02*
X17587000Y-12329000D01*
X17537000Y-12279000D02*
X17637000Y-12279000D01*
X17841000Y-12229000D02*
X17841000Y-12329000D01*
X17791000Y-12279000D02*
X17891000Y-12279000D01*
X18095000Y-12229000D02*
X18095000Y-12329000D01*
X18045000Y-12279000D02*
X18145000Y-12279000D01*
X18349000Y-12229000D02*
X18349000Y-12329000D01*
X18299000Y-12279000D02*
X18399000Y-12279000D01*
X18603000Y-12229000D02*
X18603000Y-12329000D01*
X18553000Y-12279000D02*
X18653000Y-12279000D01*
X18857000Y-12229000D02*
X18857000Y-12329000D01*
X18807000Y-12279000D02*
X18907000Y-12279000D01*
X19111000Y-12229000D02*
X19111000Y-12329000D01*
X19061000Y-12279000D02*
X19161000Y-12279000D01*
X19365000Y-12229000D02*
X19365000Y-12329000D01*
X19315000Y-12279000D02*
X19415000Y-12279000D01*
X19619000Y-12229000D02*
X19619000Y-12329000D01*
X19569000Y-12279000D02*
X19669000Y-12279000D01*
D11*
X17055777Y-12916484D02*
X17055777Y-12716484D01*
X17055777Y-12716484D02*
X17103396Y-12716484D01*
X17103396Y-12716484D02*
X17131967Y-12726008D01*
X17131967Y-12726008D02*
X17151015Y-12745055D01*
X17151015Y-12745055D02*
X17160539Y-12764103D01*
X17160539Y-12764103D02*
X17170063Y-12802198D01*
X17170063Y-12802198D02*
X17170063Y-12830769D01*
X17170063Y-12830769D02*
X17160539Y-12868865D01*
X17160539Y-12868865D02*
X17151015Y-12887912D01*
X17151015Y-12887912D02*
X17131967Y-12906960D01*
X17131967Y-12906960D02*
X17103396Y-12916484D01*
X17103396Y-12916484D02*
X17055777Y-12916484D01*
X17255777Y-12916484D02*
X17255777Y-12783150D01*
X17255777Y-12821246D02*
X17265301Y-12802198D01*
X17265301Y-12802198D02*
X17274824Y-12792674D01*
X17274824Y-12792674D02*
X17293872Y-12783150D01*
X17293872Y-12783150D02*
X17312920Y-12783150D01*
X17379586Y-12916484D02*
X17379586Y-12783150D01*
X17379586Y-12716484D02*
X17370063Y-12726008D01*
X17370063Y-12726008D02*
X17379586Y-12735531D01*
X17379586Y-12735531D02*
X17389110Y-12726008D01*
X17389110Y-12726008D02*
X17379586Y-12716484D01*
X17379586Y-12716484D02*
X17379586Y-12735531D01*
X17503396Y-12916484D02*
X17484348Y-12906960D01*
X17484348Y-12906960D02*
X17474824Y-12887912D01*
X17474824Y-12887912D02*
X17474824Y-12716484D01*
X17608158Y-12916484D02*
X17589110Y-12906960D01*
X17589110Y-12906960D02*
X17579586Y-12887912D01*
X17579586Y-12887912D02*
X17579586Y-12716484D01*
X17836729Y-12916484D02*
X17836729Y-12716484D01*
X17836729Y-12716484D02*
X17903396Y-12859341D01*
X17903396Y-12859341D02*
X17970063Y-12716484D01*
X17970063Y-12716484D02*
X17970063Y-12916484D01*
X18151015Y-12916484D02*
X18151015Y-12811722D01*
X18151015Y-12811722D02*
X18141491Y-12792674D01*
X18141491Y-12792674D02*
X18122444Y-12783150D01*
X18122444Y-12783150D02*
X18084348Y-12783150D01*
X18084348Y-12783150D02*
X18065301Y-12792674D01*
X18151015Y-12906960D02*
X18131967Y-12916484D01*
X18131967Y-12916484D02*
X18084348Y-12916484D01*
X18084348Y-12916484D02*
X18065301Y-12906960D01*
X18065301Y-12906960D02*
X18055777Y-12887912D01*
X18055777Y-12887912D02*
X18055777Y-12868865D01*
X18055777Y-12868865D02*
X18065301Y-12849817D01*
X18065301Y-12849817D02*
X18084348Y-12840293D01*
X18084348Y-12840293D02*
X18131967Y-12840293D01*
X18131967Y-12840293D02*
X18151015Y-12830769D01*
X18246253Y-12783150D02*
X18246253Y-12983150D01*
X18246253Y-12792674D02*
X18265301Y-12783150D01*
X18265301Y-12783150D02*
X18303396Y-12783150D01*
X18303396Y-12783150D02*
X18322444Y-12792674D01*
X18322444Y-12792674D02*
X18331967Y-12802198D01*
X18331967Y-12802198D02*
X18341491Y-12821246D01*
X18341491Y-12821246D02*
X18341491Y-12878388D01*
X18341491Y-12878388D02*
X18331967Y-12897436D01*
X18331967Y-12897436D02*
X18322444Y-12906960D01*
X18322444Y-12906960D02*
X18303396Y-12916484D01*
X18303396Y-12916484D02*
X18265301Y-12916484D01*
X18265301Y-12916484D02*
X18246253Y-12906960D01*
X18427205Y-12897436D02*
X18436729Y-12906960D01*
X18436729Y-12906960D02*
X18427205Y-12916484D01*
X18427205Y-12916484D02*
X18417682Y-12906960D01*
X18417682Y-12906960D02*
X18427205Y-12897436D01*
X18427205Y-12897436D02*
X18427205Y-12916484D01*
X18427205Y-12792674D02*
X18436729Y-12802198D01*
X18436729Y-12802198D02*
X18427205Y-12811722D01*
X18427205Y-12811722D02*
X18417682Y-12802198D01*
X18417682Y-12802198D02*
X18427205Y-12792674D01*
X18427205Y-12792674D02*
X18427205Y-12811722D01*
D10*
X16765000Y-13230000D02*
X16795000Y-13260000D01*
X16795000Y-13230000D02*
X16765000Y-13260000D01*
D11*
X17093872Y-13136484D02*
X17112920Y-13136484D01*
X17112920Y-13136484D02*
X17131967Y-13146008D01*
X17131967Y-13146008D02*
X17141491Y-13155531D01*
X17141491Y-13155531D02*
X17151015Y-13174579D01*
X17151015Y-13174579D02*
X17160539Y-13212674D01*
X17160539Y-13212674D02*
X17160539Y-13260293D01*
X17160539Y-13260293D02*
X17151015Y-13298388D01*
X17151015Y-13298388D02*
X17141491Y-13317436D01*
X17141491Y-13317436D02*
X17131967Y-13326960D01*
X17131967Y-13326960D02*
X17112920Y-13336484D01*
X17112920Y-13336484D02*
X17093872Y-13336484D01*
X17093872Y-13336484D02*
X17074824Y-13326960D01*
X17074824Y-13326960D02*
X17065301Y-13317436D01*
X17065301Y-13317436D02*
X17055777Y-13298388D01*
X17055777Y-13298388D02*
X17046253Y-13260293D01*
X17046253Y-13260293D02*
X17046253Y-13212674D01*
X17046253Y-13212674D02*
X17055777Y-13174579D01*
X17055777Y-13174579D02*
X17065301Y-13155531D01*
X17065301Y-13155531D02*
X17074824Y-13146008D01*
X17074824Y-13146008D02*
X17093872Y-13136484D01*
X17246253Y-13317436D02*
X17255777Y-13326960D01*
X17255777Y-13326960D02*
X17246253Y-13336484D01*
X17246253Y-13336484D02*
X17236729Y-13326960D01*
X17236729Y-13326960D02*
X17246253Y-13317436D01*
X17246253Y-13317436D02*
X17246253Y-13336484D01*
X17322444Y-13136484D02*
X17446253Y-13136484D01*
X17446253Y-13136484D02*
X17379586Y-13212674D01*
X17379586Y-13212674D02*
X17408158Y-13212674D01*
X17408158Y-13212674D02*
X17427205Y-13222198D01*
X17427205Y-13222198D02*
X17436729Y-13231722D01*
X17436729Y-13231722D02*
X17446253Y-13250769D01*
X17446253Y-13250769D02*
X17446253Y-13298388D01*
X17446253Y-13298388D02*
X17436729Y-13317436D01*
X17436729Y-13317436D02*
X17427205Y-13326960D01*
X17427205Y-13326960D02*
X17408158Y-13336484D01*
X17408158Y-13336484D02*
X17351015Y-13336484D01*
X17351015Y-13336484D02*
X17331967Y-13326960D01*
X17331967Y-13326960D02*
X17322444Y-13317436D01*
X17570063Y-13136484D02*
X17589110Y-13136484D01*
X17589110Y-13136484D02*
X17608158Y-13146008D01*
X17608158Y-13146008D02*
X17617682Y-13155531D01*
X17617682Y-13155531D02*
X17627205Y-13174579D01*
X17627205Y-13174579D02*
X17636729Y-13212674D01*
X17636729Y-13212674D02*
X17636729Y-13260293D01*
X17636729Y-13260293D02*
X17627205Y-13298388D01*
X17627205Y-13298388D02*
X17617682Y-13317436D01*
X17617682Y-13317436D02*
X17608158Y-13326960D01*
X17608158Y-13326960D02*
X17589110Y-13336484D01*
X17589110Y-13336484D02*
X17570063Y-13336484D01*
X17570063Y-13336484D02*
X17551015Y-13326960D01*
X17551015Y-13326960D02*
X17541491Y-13317436D01*
X17541491Y-13317436D02*
X17531967Y-13298388D01*
X17531967Y-13298388D02*
X17522444Y-13260293D01*
X17522444Y-13260293D02*
X17522444Y-13212674D01*
X17522444Y-13212674D02*
X17531967Y-13174579D01*
X17531967Y-13174579D02*
X17541491Y-13155531D01*
X17541491Y-13155531D02*
X17551015Y-13146008D01*
X17551015Y-13146008D02*
X17570063Y-13136484D01*
X17760539Y-13136484D02*
X17779586Y-13136484D01*
X17779586Y-13136484D02*
X17798634Y-13146008D01*
X17798634Y-13146008D02*
X17808158Y-13155531D01*
X17808158Y-13155531D02*
X17817682Y-13174579D01*
X17817682Y-13174579D02*
X17827205Y-13212674D01*
X17827205Y-13212674D02*
X17827205Y-13260293D01*
X17827205Y-13260293D02*
X17817682Y-13298388D01*
X17817682Y-13298388D02*
X17808158Y-13317436D01*
X17808158Y-13317436D02*
X17798634Y-13326960D01*
X17798634Y-13326960D02*
X17779586Y-13336484D01*
X17779586Y-13336484D02*
X17760539Y-13336484D01*
X17760539Y-13336484D02*
X17741491Y-13326960D01*
X17741491Y-13326960D02*
X17731967Y-13317436D01*
X17731967Y-13317436D02*
X17722444Y-13298388D01*
X17722444Y-13298388D02*
X17712920Y-13260293D01*
X17712920Y-13260293D02*
X17712920Y-13212674D01*
X17712920Y-13212674D02*
X17722444Y-13174579D01*
X17722444Y-13174579D02*
X17731967Y-13155531D01*
X17731967Y-13155531D02*
X17741491Y-13146008D01*
X17741491Y-13146008D02*
X17760539Y-13136484D01*
X17912920Y-13336484D02*
X17912920Y-13203150D01*
X17912920Y-13222198D02*
X17922444Y-13212674D01*
X17922444Y-13212674D02*
X17941491Y-13203150D01*
X17941491Y-13203150D02*
X17970063Y-13203150D01*
X17970063Y-13203150D02*
X17989110Y-13212674D01*
X17989110Y-13212674D02*
X17998634Y-13231722D01*
X17998634Y-13231722D02*
X17998634Y-13336484D01*
X17998634Y-13231722D02*
X18008158Y-13212674D01*
X18008158Y-13212674D02*
X18027205Y-13203150D01*
X18027205Y-13203150D02*
X18055777Y-13203150D01*
X18055777Y-13203150D02*
X18074825Y-13212674D01*
X18074825Y-13212674D02*
X18084348Y-13231722D01*
X18084348Y-13231722D02*
X18084348Y-13336484D01*
X18179586Y-13336484D02*
X18179586Y-13203150D01*
X18179586Y-13222198D02*
X18189110Y-13212674D01*
X18189110Y-13212674D02*
X18208158Y-13203150D01*
X18208158Y-13203150D02*
X18236729Y-13203150D01*
X18236729Y-13203150D02*
X18255777Y-13212674D01*
X18255777Y-13212674D02*
X18265301Y-13231722D01*
X18265301Y-13231722D02*
X18265301Y-13336484D01*
X18265301Y-13231722D02*
X18274825Y-13212674D01*
X18274825Y-13212674D02*
X18293872Y-13203150D01*
X18293872Y-13203150D02*
X18322444Y-13203150D01*
X18322444Y-13203150D02*
X18341491Y-13212674D01*
X18341491Y-13212674D02*
X18351015Y-13231722D01*
X18351015Y-13231722D02*
X18351015Y-13336484D01*
X18741491Y-13126960D02*
X18570063Y-13384103D01*
X18998634Y-13136484D02*
X19017682Y-13136484D01*
X19017682Y-13136484D02*
X19036729Y-13146008D01*
X19036729Y-13146008D02*
X19046253Y-13155531D01*
X19046253Y-13155531D02*
X19055777Y-13174579D01*
X19055777Y-13174579D02*
X19065301Y-13212674D01*
X19065301Y-13212674D02*
X19065301Y-13260293D01*
X19065301Y-13260293D02*
X19055777Y-13298388D01*
X19055777Y-13298388D02*
X19046253Y-13317436D01*
X19046253Y-13317436D02*
X19036729Y-13326960D01*
X19036729Y-13326960D02*
X19017682Y-13336484D01*
X19017682Y-13336484D02*
X18998634Y-13336484D01*
X18998634Y-13336484D02*
X18979587Y-13326960D01*
X18979587Y-13326960D02*
X18970063Y-13317436D01*
X18970063Y-13317436D02*
X18960539Y-13298388D01*
X18960539Y-13298388D02*
X18951015Y-13260293D01*
X18951015Y-13260293D02*
X18951015Y-13212674D01*
X18951015Y-13212674D02*
X18960539Y-13174579D01*
X18960539Y-13174579D02*
X18970063Y-13155531D01*
X18970063Y-13155531D02*
X18979587Y-13146008D01*
X18979587Y-13146008D02*
X18998634Y-13136484D01*
X19151015Y-13317436D02*
X19160539Y-13326960D01*
X19160539Y-13326960D02*
X19151015Y-13336484D01*
X19151015Y-13336484D02*
X19141491Y-13326960D01*
X19141491Y-13326960D02*
X19151015Y-13317436D01*
X19151015Y-13317436D02*
X19151015Y-13336484D01*
X19284348Y-13136484D02*
X19303396Y-13136484D01*
X19303396Y-13136484D02*
X19322444Y-13146008D01*
X19322444Y-13146008D02*
X19331968Y-13155531D01*
X19331968Y-13155531D02*
X19341491Y-13174579D01*
X19341491Y-13174579D02*
X19351015Y-13212674D01*
X19351015Y-13212674D02*
X19351015Y-13260293D01*
X19351015Y-13260293D02*
X19341491Y-13298388D01*
X19341491Y-13298388D02*
X19331968Y-13317436D01*
X19331968Y-13317436D02*
X19322444Y-13326960D01*
X19322444Y-13326960D02*
X19303396Y-13336484D01*
X19303396Y-13336484D02*
X19284348Y-13336484D01*
X19284348Y-13336484D02*
X19265301Y-13326960D01*
X19265301Y-13326960D02*
X19255777Y-13317436D01*
X19255777Y-13317436D02*
X19246253Y-13298388D01*
X19246253Y-13298388D02*
X19236729Y-13260293D01*
X19236729Y-13260293D02*
X19236729Y-13212674D01*
X19236729Y-13212674D02*
X19246253Y-13174579D01*
X19246253Y-13174579D02*
X19255777Y-13155531D01*
X19255777Y-13155531D02*
X19265301Y-13146008D01*
X19265301Y-13146008D02*
X19284348Y-13136484D01*
X19541491Y-13336484D02*
X19427206Y-13336484D01*
X19484348Y-13336484D02*
X19484348Y-13136484D01*
X19484348Y-13136484D02*
X19465301Y-13165055D01*
X19465301Y-13165055D02*
X19446253Y-13184103D01*
X19446253Y-13184103D02*
X19427206Y-13193627D01*
X19731968Y-13336484D02*
X19617682Y-13336484D01*
X19674825Y-13336484D02*
X19674825Y-13136484D01*
X19674825Y-13136484D02*
X19655777Y-13165055D01*
X19655777Y-13165055D02*
X19636729Y-13184103D01*
X19636729Y-13184103D02*
X19617682Y-13193627D01*
X19846253Y-13222198D02*
X19827206Y-13212674D01*
X19827206Y-13212674D02*
X19817682Y-13203150D01*
X19817682Y-13203150D02*
X19808158Y-13184103D01*
X19808158Y-13184103D02*
X19808158Y-13174579D01*
X19808158Y-13174579D02*
X19817682Y-13155531D01*
X19817682Y-13155531D02*
X19827206Y-13146008D01*
X19827206Y-13146008D02*
X19846253Y-13136484D01*
X19846253Y-13136484D02*
X19884349Y-13136484D01*
X19884349Y-13136484D02*
X19903396Y-13146008D01*
X19903396Y-13146008D02*
X19912920Y-13155531D01*
X19912920Y-13155531D02*
X19922444Y-13174579D01*
X19922444Y-13174579D02*
X19922444Y-13184103D01*
X19922444Y-13184103D02*
X19912920Y-13203150D01*
X19912920Y-13203150D02*
X19903396Y-13212674D01*
X19903396Y-13212674D02*
X19884349Y-13222198D01*
X19884349Y-13222198D02*
X19846253Y-13222198D01*
X19846253Y-13222198D02*
X19827206Y-13231722D01*
X19827206Y-13231722D02*
X19817682Y-13241246D01*
X19817682Y-13241246D02*
X19808158Y-13260293D01*
X19808158Y-13260293D02*
X19808158Y-13298388D01*
X19808158Y-13298388D02*
X19817682Y-13317436D01*
X19817682Y-13317436D02*
X19827206Y-13326960D01*
X19827206Y-13326960D02*
X19846253Y-13336484D01*
X19846253Y-13336484D02*
X19884349Y-13336484D01*
X19884349Y-13336484D02*
X19903396Y-13326960D01*
X19903396Y-13326960D02*
X19912920Y-13317436D01*
X19912920Y-13317436D02*
X19922444Y-13298388D01*
X19922444Y-13298388D02*
X19922444Y-13260293D01*
X19922444Y-13260293D02*
X19912920Y-13241246D01*
X19912920Y-13241246D02*
X19903396Y-13231722D01*
X19903396Y-13231722D02*
X19884349Y-13222198D01*
X19998634Y-13136484D02*
X19998634Y-13174579D01*
X20074825Y-13136484D02*
X20074825Y-13174579D01*
X20370063Y-13412674D02*
X20360539Y-13403150D01*
X20360539Y-13403150D02*
X20341491Y-13374579D01*
X20341491Y-13374579D02*
X20331968Y-13355531D01*
X20331968Y-13355531D02*
X20322444Y-13326960D01*
X20322444Y-13326960D02*
X20312920Y-13279341D01*
X20312920Y-13279341D02*
X20312920Y-13241246D01*
X20312920Y-13241246D02*
X20322444Y-13193627D01*
X20322444Y-13193627D02*
X20331968Y-13165055D01*
X20331968Y-13165055D02*
X20341491Y-13146008D01*
X20341491Y-13146008D02*
X20360539Y-13117436D01*
X20360539Y-13117436D02*
X20370063Y-13107912D01*
X20436730Y-13155531D02*
X20446253Y-13146008D01*
X20446253Y-13146008D02*
X20465301Y-13136484D01*
X20465301Y-13136484D02*
X20512920Y-13136484D01*
X20512920Y-13136484D02*
X20531968Y-13146008D01*
X20531968Y-13146008D02*
X20541491Y-13155531D01*
X20541491Y-13155531D02*
X20551015Y-13174579D01*
X20551015Y-13174579D02*
X20551015Y-13193627D01*
X20551015Y-13193627D02*
X20541491Y-13222198D01*
X20541491Y-13222198D02*
X20427206Y-13336484D01*
X20427206Y-13336484D02*
X20551015Y-13336484D01*
X20627206Y-13155531D02*
X20636730Y-13146008D01*
X20636730Y-13146008D02*
X20655777Y-13136484D01*
X20655777Y-13136484D02*
X20703396Y-13136484D01*
X20703396Y-13136484D02*
X20722444Y-13146008D01*
X20722444Y-13146008D02*
X20731968Y-13155531D01*
X20731968Y-13155531D02*
X20741491Y-13174579D01*
X20741491Y-13174579D02*
X20741491Y-13193627D01*
X20741491Y-13193627D02*
X20731968Y-13222198D01*
X20731968Y-13222198D02*
X20617682Y-13336484D01*
X20617682Y-13336484D02*
X20741491Y-13336484D01*
X20979587Y-13336484D02*
X20979587Y-13136484D01*
X21065301Y-13336484D02*
X21065301Y-13231722D01*
X21065301Y-13231722D02*
X21055777Y-13212674D01*
X21055777Y-13212674D02*
X21036730Y-13203150D01*
X21036730Y-13203150D02*
X21008158Y-13203150D01*
X21008158Y-13203150D02*
X20989111Y-13212674D01*
X20989111Y-13212674D02*
X20979587Y-13222198D01*
X21189111Y-13336484D02*
X21170063Y-13326960D01*
X21170063Y-13326960D02*
X21160539Y-13317436D01*
X21160539Y-13317436D02*
X21151015Y-13298388D01*
X21151015Y-13298388D02*
X21151015Y-13241246D01*
X21151015Y-13241246D02*
X21160539Y-13222198D01*
X21160539Y-13222198D02*
X21170063Y-13212674D01*
X21170063Y-13212674D02*
X21189111Y-13203150D01*
X21189111Y-13203150D02*
X21217682Y-13203150D01*
X21217682Y-13203150D02*
X21236730Y-13212674D01*
X21236730Y-13212674D02*
X21246253Y-13222198D01*
X21246253Y-13222198D02*
X21255777Y-13241246D01*
X21255777Y-13241246D02*
X21255777Y-13298388D01*
X21255777Y-13298388D02*
X21246253Y-13317436D01*
X21246253Y-13317436D02*
X21236730Y-13326960D01*
X21236730Y-13326960D02*
X21217682Y-13336484D01*
X21217682Y-13336484D02*
X21189111Y-13336484D01*
X21370063Y-13336484D02*
X21351015Y-13326960D01*
X21351015Y-13326960D02*
X21341492Y-13307912D01*
X21341492Y-13307912D02*
X21341492Y-13136484D01*
X21522444Y-13326960D02*
X21503396Y-13336484D01*
X21503396Y-13336484D02*
X21465301Y-13336484D01*
X21465301Y-13336484D02*
X21446253Y-13326960D01*
X21446253Y-13326960D02*
X21436730Y-13307912D01*
X21436730Y-13307912D02*
X21436730Y-13231722D01*
X21436730Y-13231722D02*
X21446253Y-13212674D01*
X21446253Y-13212674D02*
X21465301Y-13203150D01*
X21465301Y-13203150D02*
X21503396Y-13203150D01*
X21503396Y-13203150D02*
X21522444Y-13212674D01*
X21522444Y-13212674D02*
X21531968Y-13231722D01*
X21531968Y-13231722D02*
X21531968Y-13250769D01*
X21531968Y-13250769D02*
X21436730Y-13269817D01*
X21608158Y-13326960D02*
X21627206Y-13336484D01*
X21627206Y-13336484D02*
X21665301Y-13336484D01*
X21665301Y-13336484D02*
X21684349Y-13326960D01*
X21684349Y-13326960D02*
X21693873Y-13307912D01*
X21693873Y-13307912D02*
X21693873Y-13298388D01*
X21693873Y-13298388D02*
X21684349Y-13279341D01*
X21684349Y-13279341D02*
X21665301Y-13269817D01*
X21665301Y-13269817D02*
X21636730Y-13269817D01*
X21636730Y-13269817D02*
X21617682Y-13260293D01*
X21617682Y-13260293D02*
X21608158Y-13241246D01*
X21608158Y-13241246D02*
X21608158Y-13231722D01*
X21608158Y-13231722D02*
X21617682Y-13212674D01*
X21617682Y-13212674D02*
X21636730Y-13203150D01*
X21636730Y-13203150D02*
X21665301Y-13203150D01*
X21665301Y-13203150D02*
X21684349Y-13212674D01*
X21760539Y-13412674D02*
X21770063Y-13403150D01*
X21770063Y-13403150D02*
X21789111Y-13374579D01*
X21789111Y-13374579D02*
X21798634Y-13355531D01*
X21798634Y-13355531D02*
X21808158Y-13326960D01*
X21808158Y-13326960D02*
X21817682Y-13279341D01*
X21817682Y-13279341D02*
X21817682Y-13241246D01*
X21817682Y-13241246D02*
X21808158Y-13193627D01*
X21808158Y-13193627D02*
X21798634Y-13165055D01*
X21798634Y-13165055D02*
X21789111Y-13146008D01*
X21789111Y-13146008D02*
X21770063Y-13117436D01*
X21770063Y-13117436D02*
X21760539Y-13107912D01*
D10*
X16795000Y-13509000D02*
G75*
G03*
X16795000Y-13509000I-15000J0D01*
G01*
D11*
X17093872Y-13400484D02*
X17112920Y-13400484D01*
X17112920Y-13400484D02*
X17131967Y-13410008D01*
X17131967Y-13410008D02*
X17141491Y-13419531D01*
X17141491Y-13419531D02*
X17151015Y-13438579D01*
X17151015Y-13438579D02*
X17160539Y-13476674D01*
X17160539Y-13476674D02*
X17160539Y-13524293D01*
X17160539Y-13524293D02*
X17151015Y-13562388D01*
X17151015Y-13562388D02*
X17141491Y-13581436D01*
X17141491Y-13581436D02*
X17131967Y-13590960D01*
X17131967Y-13590960D02*
X17112920Y-13600484D01*
X17112920Y-13600484D02*
X17093872Y-13600484D01*
X17093872Y-13600484D02*
X17074824Y-13590960D01*
X17074824Y-13590960D02*
X17065301Y-13581436D01*
X17065301Y-13581436D02*
X17055777Y-13562388D01*
X17055777Y-13562388D02*
X17046253Y-13524293D01*
X17046253Y-13524293D02*
X17046253Y-13476674D01*
X17046253Y-13476674D02*
X17055777Y-13438579D01*
X17055777Y-13438579D02*
X17065301Y-13419531D01*
X17065301Y-13419531D02*
X17074824Y-13410008D01*
X17074824Y-13410008D02*
X17093872Y-13400484D01*
X17246253Y-13581436D02*
X17255777Y-13590960D01*
X17255777Y-13590960D02*
X17246253Y-13600484D01*
X17246253Y-13600484D02*
X17236729Y-13590960D01*
X17236729Y-13590960D02*
X17246253Y-13581436D01*
X17246253Y-13581436D02*
X17246253Y-13600484D01*
X17322444Y-13400484D02*
X17446253Y-13400484D01*
X17446253Y-13400484D02*
X17379586Y-13476674D01*
X17379586Y-13476674D02*
X17408158Y-13476674D01*
X17408158Y-13476674D02*
X17427205Y-13486198D01*
X17427205Y-13486198D02*
X17436729Y-13495722D01*
X17436729Y-13495722D02*
X17446253Y-13514769D01*
X17446253Y-13514769D02*
X17446253Y-13562388D01*
X17446253Y-13562388D02*
X17436729Y-13581436D01*
X17436729Y-13581436D02*
X17427205Y-13590960D01*
X17427205Y-13590960D02*
X17408158Y-13600484D01*
X17408158Y-13600484D02*
X17351015Y-13600484D01*
X17351015Y-13600484D02*
X17331967Y-13590960D01*
X17331967Y-13590960D02*
X17322444Y-13581436D01*
X17570063Y-13400484D02*
X17589110Y-13400484D01*
X17589110Y-13400484D02*
X17608158Y-13410008D01*
X17608158Y-13410008D02*
X17617682Y-13419531D01*
X17617682Y-13419531D02*
X17627205Y-13438579D01*
X17627205Y-13438579D02*
X17636729Y-13476674D01*
X17636729Y-13476674D02*
X17636729Y-13524293D01*
X17636729Y-13524293D02*
X17627205Y-13562388D01*
X17627205Y-13562388D02*
X17617682Y-13581436D01*
X17617682Y-13581436D02*
X17608158Y-13590960D01*
X17608158Y-13590960D02*
X17589110Y-13600484D01*
X17589110Y-13600484D02*
X17570063Y-13600484D01*
X17570063Y-13600484D02*
X17551015Y-13590960D01*
X17551015Y-13590960D02*
X17541491Y-13581436D01*
X17541491Y-13581436D02*
X17531967Y-13562388D01*
X17531967Y-13562388D02*
X17522444Y-13524293D01*
X17522444Y-13524293D02*
X17522444Y-13476674D01*
X17522444Y-13476674D02*
X17531967Y-13438579D01*
X17531967Y-13438579D02*
X17541491Y-13419531D01*
X17541491Y-13419531D02*
X17551015Y-13410008D01*
X17551015Y-13410008D02*
X17570063Y-13400484D01*
X17760539Y-13400484D02*
X17779586Y-13400484D01*
X17779586Y-13400484D02*
X17798634Y-13410008D01*
X17798634Y-13410008D02*
X17808158Y-13419531D01*
X17808158Y-13419531D02*
X17817682Y-13438579D01*
X17817682Y-13438579D02*
X17827205Y-13476674D01*
X17827205Y-13476674D02*
X17827205Y-13524293D01*
X17827205Y-13524293D02*
X17817682Y-13562388D01*
X17817682Y-13562388D02*
X17808158Y-13581436D01*
X17808158Y-13581436D02*
X17798634Y-13590960D01*
X17798634Y-13590960D02*
X17779586Y-13600484D01*
X17779586Y-13600484D02*
X17760539Y-13600484D01*
X17760539Y-13600484D02*
X17741491Y-13590960D01*
X17741491Y-13590960D02*
X17731967Y-13581436D01*
X17731967Y-13581436D02*
X17722444Y-13562388D01*
X17722444Y-13562388D02*
X17712920Y-13524293D01*
X17712920Y-13524293D02*
X17712920Y-13476674D01*
X17712920Y-13476674D02*
X17722444Y-13438579D01*
X17722444Y-13438579D02*
X17731967Y-13419531D01*
X17731967Y-13419531D02*
X17741491Y-13410008D01*
X17741491Y-13410008D02*
X17760539Y-13400484D01*
X17912920Y-13600484D02*
X17912920Y-13467150D01*
X17912920Y-13486198D02*
X17922444Y-13476674D01*
X17922444Y-13476674D02*
X17941491Y-13467150D01*
X17941491Y-13467150D02*
X17970063Y-13467150D01*
X17970063Y-13467150D02*
X17989110Y-13476674D01*
X17989110Y-13476674D02*
X17998634Y-13495722D01*
X17998634Y-13495722D02*
X17998634Y-13600484D01*
X17998634Y-13495722D02*
X18008158Y-13476674D01*
X18008158Y-13476674D02*
X18027205Y-13467150D01*
X18027205Y-13467150D02*
X18055777Y-13467150D01*
X18055777Y-13467150D02*
X18074825Y-13476674D01*
X18074825Y-13476674D02*
X18084348Y-13495722D01*
X18084348Y-13495722D02*
X18084348Y-13600484D01*
X18179586Y-13600484D02*
X18179586Y-13467150D01*
X18179586Y-13486198D02*
X18189110Y-13476674D01*
X18189110Y-13476674D02*
X18208158Y-13467150D01*
X18208158Y-13467150D02*
X18236729Y-13467150D01*
X18236729Y-13467150D02*
X18255777Y-13476674D01*
X18255777Y-13476674D02*
X18265301Y-13495722D01*
X18265301Y-13495722D02*
X18265301Y-13600484D01*
X18265301Y-13495722D02*
X18274825Y-13476674D01*
X18274825Y-13476674D02*
X18293872Y-13467150D01*
X18293872Y-13467150D02*
X18322444Y-13467150D01*
X18322444Y-13467150D02*
X18341491Y-13476674D01*
X18341491Y-13476674D02*
X18351015Y-13495722D01*
X18351015Y-13495722D02*
X18351015Y-13600484D01*
X18741491Y-13390960D02*
X18570063Y-13648103D01*
X18998634Y-13400484D02*
X19017682Y-13400484D01*
X19017682Y-13400484D02*
X19036729Y-13410008D01*
X19036729Y-13410008D02*
X19046253Y-13419531D01*
X19046253Y-13419531D02*
X19055777Y-13438579D01*
X19055777Y-13438579D02*
X19065301Y-13476674D01*
X19065301Y-13476674D02*
X19065301Y-13524293D01*
X19065301Y-13524293D02*
X19055777Y-13562388D01*
X19055777Y-13562388D02*
X19046253Y-13581436D01*
X19046253Y-13581436D02*
X19036729Y-13590960D01*
X19036729Y-13590960D02*
X19017682Y-13600484D01*
X19017682Y-13600484D02*
X18998634Y-13600484D01*
X18998634Y-13600484D02*
X18979587Y-13590960D01*
X18979587Y-13590960D02*
X18970063Y-13581436D01*
X18970063Y-13581436D02*
X18960539Y-13562388D01*
X18960539Y-13562388D02*
X18951015Y-13524293D01*
X18951015Y-13524293D02*
X18951015Y-13476674D01*
X18951015Y-13476674D02*
X18960539Y-13438579D01*
X18960539Y-13438579D02*
X18970063Y-13419531D01*
X18970063Y-13419531D02*
X18979587Y-13410008D01*
X18979587Y-13410008D02*
X18998634Y-13400484D01*
X19151015Y-13581436D02*
X19160539Y-13590960D01*
X19160539Y-13590960D02*
X19151015Y-13600484D01*
X19151015Y-13600484D02*
X19141491Y-13590960D01*
X19141491Y-13590960D02*
X19151015Y-13581436D01*
X19151015Y-13581436D02*
X19151015Y-13600484D01*
X19284348Y-13400484D02*
X19303396Y-13400484D01*
X19303396Y-13400484D02*
X19322444Y-13410008D01*
X19322444Y-13410008D02*
X19331968Y-13419531D01*
X19331968Y-13419531D02*
X19341491Y-13438579D01*
X19341491Y-13438579D02*
X19351015Y-13476674D01*
X19351015Y-13476674D02*
X19351015Y-13524293D01*
X19351015Y-13524293D02*
X19341491Y-13562388D01*
X19341491Y-13562388D02*
X19331968Y-13581436D01*
X19331968Y-13581436D02*
X19322444Y-13590960D01*
X19322444Y-13590960D02*
X19303396Y-13600484D01*
X19303396Y-13600484D02*
X19284348Y-13600484D01*
X19284348Y-13600484D02*
X19265301Y-13590960D01*
X19265301Y-13590960D02*
X19255777Y-13581436D01*
X19255777Y-13581436D02*
X19246253Y-13562388D01*
X19246253Y-13562388D02*
X19236729Y-13524293D01*
X19236729Y-13524293D02*
X19236729Y-13476674D01*
X19236729Y-13476674D02*
X19246253Y-13438579D01*
X19246253Y-13438579D02*
X19255777Y-13419531D01*
X19255777Y-13419531D02*
X19265301Y-13410008D01*
X19265301Y-13410008D02*
X19284348Y-13400484D01*
X19541491Y-13600484D02*
X19427206Y-13600484D01*
X19484348Y-13600484D02*
X19484348Y-13400484D01*
X19484348Y-13400484D02*
X19465301Y-13429055D01*
X19465301Y-13429055D02*
X19446253Y-13448103D01*
X19446253Y-13448103D02*
X19427206Y-13457627D01*
X19731968Y-13600484D02*
X19617682Y-13600484D01*
X19674825Y-13600484D02*
X19674825Y-13400484D01*
X19674825Y-13400484D02*
X19655777Y-13429055D01*
X19655777Y-13429055D02*
X19636729Y-13448103D01*
X19636729Y-13448103D02*
X19617682Y-13457627D01*
X19846253Y-13486198D02*
X19827206Y-13476674D01*
X19827206Y-13476674D02*
X19817682Y-13467150D01*
X19817682Y-13467150D02*
X19808158Y-13448103D01*
X19808158Y-13448103D02*
X19808158Y-13438579D01*
X19808158Y-13438579D02*
X19817682Y-13419531D01*
X19817682Y-13419531D02*
X19827206Y-13410008D01*
X19827206Y-13410008D02*
X19846253Y-13400484D01*
X19846253Y-13400484D02*
X19884349Y-13400484D01*
X19884349Y-13400484D02*
X19903396Y-13410008D01*
X19903396Y-13410008D02*
X19912920Y-13419531D01*
X19912920Y-13419531D02*
X19922444Y-13438579D01*
X19922444Y-13438579D02*
X19922444Y-13448103D01*
X19922444Y-13448103D02*
X19912920Y-13467150D01*
X19912920Y-13467150D02*
X19903396Y-13476674D01*
X19903396Y-13476674D02*
X19884349Y-13486198D01*
X19884349Y-13486198D02*
X19846253Y-13486198D01*
X19846253Y-13486198D02*
X19827206Y-13495722D01*
X19827206Y-13495722D02*
X19817682Y-13505246D01*
X19817682Y-13505246D02*
X19808158Y-13524293D01*
X19808158Y-13524293D02*
X19808158Y-13562388D01*
X19808158Y-13562388D02*
X19817682Y-13581436D01*
X19817682Y-13581436D02*
X19827206Y-13590960D01*
X19827206Y-13590960D02*
X19846253Y-13600484D01*
X19846253Y-13600484D02*
X19884349Y-13600484D01*
X19884349Y-13600484D02*
X19903396Y-13590960D01*
X19903396Y-13590960D02*
X19912920Y-13581436D01*
X19912920Y-13581436D02*
X19922444Y-13562388D01*
X19922444Y-13562388D02*
X19922444Y-13524293D01*
X19922444Y-13524293D02*
X19912920Y-13505246D01*
X19912920Y-13505246D02*
X19903396Y-13495722D01*
X19903396Y-13495722D02*
X19884349Y-13486198D01*
X19998634Y-13400484D02*
X19998634Y-13438579D01*
X20074825Y-13400484D02*
X20074825Y-13438579D01*
X20370063Y-13676674D02*
X20360539Y-13667150D01*
X20360539Y-13667150D02*
X20341491Y-13638579D01*
X20341491Y-13638579D02*
X20331968Y-13619531D01*
X20331968Y-13619531D02*
X20322444Y-13590960D01*
X20322444Y-13590960D02*
X20312920Y-13543341D01*
X20312920Y-13543341D02*
X20312920Y-13505246D01*
X20312920Y-13505246D02*
X20322444Y-13457627D01*
X20322444Y-13457627D02*
X20331968Y-13429055D01*
X20331968Y-13429055D02*
X20341491Y-13410008D01*
X20341491Y-13410008D02*
X20360539Y-13381436D01*
X20360539Y-13381436D02*
X20370063Y-13371912D01*
X20455777Y-13600484D02*
X20493872Y-13600484D01*
X20493872Y-13600484D02*
X20512920Y-13590960D01*
X20512920Y-13590960D02*
X20522444Y-13581436D01*
X20522444Y-13581436D02*
X20541491Y-13552865D01*
X20541491Y-13552865D02*
X20551015Y-13514769D01*
X20551015Y-13514769D02*
X20551015Y-13438579D01*
X20551015Y-13438579D02*
X20541491Y-13419531D01*
X20541491Y-13419531D02*
X20531968Y-13410008D01*
X20531968Y-13410008D02*
X20512920Y-13400484D01*
X20512920Y-13400484D02*
X20474825Y-13400484D01*
X20474825Y-13400484D02*
X20455777Y-13410008D01*
X20455777Y-13410008D02*
X20446253Y-13419531D01*
X20446253Y-13419531D02*
X20436730Y-13438579D01*
X20436730Y-13438579D02*
X20436730Y-13486198D01*
X20436730Y-13486198D02*
X20446253Y-13505246D01*
X20446253Y-13505246D02*
X20455777Y-13514769D01*
X20455777Y-13514769D02*
X20474825Y-13524293D01*
X20474825Y-13524293D02*
X20512920Y-13524293D01*
X20512920Y-13524293D02*
X20531968Y-13514769D01*
X20531968Y-13514769D02*
X20541491Y-13505246D01*
X20541491Y-13505246D02*
X20551015Y-13486198D01*
X20789111Y-13600484D02*
X20789111Y-13400484D01*
X20874825Y-13600484D02*
X20874825Y-13495722D01*
X20874825Y-13495722D02*
X20865301Y-13476674D01*
X20865301Y-13476674D02*
X20846253Y-13467150D01*
X20846253Y-13467150D02*
X20817682Y-13467150D01*
X20817682Y-13467150D02*
X20798634Y-13476674D01*
X20798634Y-13476674D02*
X20789111Y-13486198D01*
X20998634Y-13600484D02*
X20979587Y-13590960D01*
X20979587Y-13590960D02*
X20970063Y-13581436D01*
X20970063Y-13581436D02*
X20960539Y-13562388D01*
X20960539Y-13562388D02*
X20960539Y-13505246D01*
X20960539Y-13505246D02*
X20970063Y-13486198D01*
X20970063Y-13486198D02*
X20979587Y-13476674D01*
X20979587Y-13476674D02*
X20998634Y-13467150D01*
X20998634Y-13467150D02*
X21027206Y-13467150D01*
X21027206Y-13467150D02*
X21046253Y-13476674D01*
X21046253Y-13476674D02*
X21055777Y-13486198D01*
X21055777Y-13486198D02*
X21065301Y-13505246D01*
X21065301Y-13505246D02*
X21065301Y-13562388D01*
X21065301Y-13562388D02*
X21055777Y-13581436D01*
X21055777Y-13581436D02*
X21046253Y-13590960D01*
X21046253Y-13590960D02*
X21027206Y-13600484D01*
X21027206Y-13600484D02*
X20998634Y-13600484D01*
X21179587Y-13600484D02*
X21160539Y-13590960D01*
X21160539Y-13590960D02*
X21151015Y-13571912D01*
X21151015Y-13571912D02*
X21151015Y-13400484D01*
X21331968Y-13590960D02*
X21312920Y-13600484D01*
X21312920Y-13600484D02*
X21274825Y-13600484D01*
X21274825Y-13600484D02*
X21255777Y-13590960D01*
X21255777Y-13590960D02*
X21246253Y-13571912D01*
X21246253Y-13571912D02*
X21246253Y-13495722D01*
X21246253Y-13495722D02*
X21255777Y-13476674D01*
X21255777Y-13476674D02*
X21274825Y-13467150D01*
X21274825Y-13467150D02*
X21312920Y-13467150D01*
X21312920Y-13467150D02*
X21331968Y-13476674D01*
X21331968Y-13476674D02*
X21341492Y-13495722D01*
X21341492Y-13495722D02*
X21341492Y-13514769D01*
X21341492Y-13514769D02*
X21246253Y-13533817D01*
X21417682Y-13590960D02*
X21436730Y-13600484D01*
X21436730Y-13600484D02*
X21474825Y-13600484D01*
X21474825Y-13600484D02*
X21493873Y-13590960D01*
X21493873Y-13590960D02*
X21503396Y-13571912D01*
X21503396Y-13571912D02*
X21503396Y-13562388D01*
X21503396Y-13562388D02*
X21493873Y-13543341D01*
X21493873Y-13543341D02*
X21474825Y-13533817D01*
X21474825Y-13533817D02*
X21446253Y-13533817D01*
X21446253Y-13533817D02*
X21427206Y-13524293D01*
X21427206Y-13524293D02*
X21417682Y-13505246D01*
X21417682Y-13505246D02*
X21417682Y-13495722D01*
X21417682Y-13495722D02*
X21427206Y-13476674D01*
X21427206Y-13476674D02*
X21446253Y-13467150D01*
X21446253Y-13467150D02*
X21474825Y-13467150D01*
X21474825Y-13467150D02*
X21493873Y-13476674D01*
X21570063Y-13676674D02*
X21579587Y-13667150D01*
X21579587Y-13667150D02*
X21598634Y-13638579D01*
X21598634Y-13638579D02*
X21608158Y-13619531D01*
X21608158Y-13619531D02*
X21617682Y-13590960D01*
X21617682Y-13590960D02*
X21627206Y-13543341D01*
X21627206Y-13543341D02*
X21627206Y-13505246D01*
X21627206Y-13505246D02*
X21617682Y-13457627D01*
X21617682Y-13457627D02*
X21608158Y-13429055D01*
X21608158Y-13429055D02*
X21598634Y-13410008D01*
X21598634Y-13410008D02*
X21579587Y-13381436D01*
X21579587Y-13381436D02*
X21570063Y-13371912D01*
D10*
X16745000Y-13723000D02*
X16745000Y-13823000D01*
X16695000Y-13773000D02*
X16795000Y-13773000D01*
D11*
X17160539Y-13864484D02*
X17046253Y-13864484D01*
X17103396Y-13864484D02*
X17103396Y-13664484D01*
X17103396Y-13664484D02*
X17084348Y-13693055D01*
X17084348Y-13693055D02*
X17065301Y-13712103D01*
X17065301Y-13712103D02*
X17046253Y-13721627D01*
X17246253Y-13845436D02*
X17255777Y-13854960D01*
X17255777Y-13854960D02*
X17246253Y-13864484D01*
X17246253Y-13864484D02*
X17236729Y-13854960D01*
X17236729Y-13854960D02*
X17246253Y-13845436D01*
X17246253Y-13845436D02*
X17246253Y-13864484D01*
X17379586Y-13664484D02*
X17398634Y-13664484D01*
X17398634Y-13664484D02*
X17417682Y-13674008D01*
X17417682Y-13674008D02*
X17427205Y-13683531D01*
X17427205Y-13683531D02*
X17436729Y-13702579D01*
X17436729Y-13702579D02*
X17446253Y-13740674D01*
X17446253Y-13740674D02*
X17446253Y-13788293D01*
X17446253Y-13788293D02*
X17436729Y-13826388D01*
X17436729Y-13826388D02*
X17427205Y-13845436D01*
X17427205Y-13845436D02*
X17417682Y-13854960D01*
X17417682Y-13854960D02*
X17398634Y-13864484D01*
X17398634Y-13864484D02*
X17379586Y-13864484D01*
X17379586Y-13864484D02*
X17360539Y-13854960D01*
X17360539Y-13854960D02*
X17351015Y-13845436D01*
X17351015Y-13845436D02*
X17341491Y-13826388D01*
X17341491Y-13826388D02*
X17331967Y-13788293D01*
X17331967Y-13788293D02*
X17331967Y-13740674D01*
X17331967Y-13740674D02*
X17341491Y-13702579D01*
X17341491Y-13702579D02*
X17351015Y-13683531D01*
X17351015Y-13683531D02*
X17360539Y-13674008D01*
X17360539Y-13674008D02*
X17379586Y-13664484D01*
X17570063Y-13664484D02*
X17589110Y-13664484D01*
X17589110Y-13664484D02*
X17608158Y-13674008D01*
X17608158Y-13674008D02*
X17617682Y-13683531D01*
X17617682Y-13683531D02*
X17627205Y-13702579D01*
X17627205Y-13702579D02*
X17636729Y-13740674D01*
X17636729Y-13740674D02*
X17636729Y-13788293D01*
X17636729Y-13788293D02*
X17627205Y-13826388D01*
X17627205Y-13826388D02*
X17617682Y-13845436D01*
X17617682Y-13845436D02*
X17608158Y-13854960D01*
X17608158Y-13854960D02*
X17589110Y-13864484D01*
X17589110Y-13864484D02*
X17570063Y-13864484D01*
X17570063Y-13864484D02*
X17551015Y-13854960D01*
X17551015Y-13854960D02*
X17541491Y-13845436D01*
X17541491Y-13845436D02*
X17531967Y-13826388D01*
X17531967Y-13826388D02*
X17522444Y-13788293D01*
X17522444Y-13788293D02*
X17522444Y-13740674D01*
X17522444Y-13740674D02*
X17531967Y-13702579D01*
X17531967Y-13702579D02*
X17541491Y-13683531D01*
X17541491Y-13683531D02*
X17551015Y-13674008D01*
X17551015Y-13674008D02*
X17570063Y-13664484D01*
X17760539Y-13664484D02*
X17779586Y-13664484D01*
X17779586Y-13664484D02*
X17798634Y-13674008D01*
X17798634Y-13674008D02*
X17808158Y-13683531D01*
X17808158Y-13683531D02*
X17817682Y-13702579D01*
X17817682Y-13702579D02*
X17827205Y-13740674D01*
X17827205Y-13740674D02*
X17827205Y-13788293D01*
X17827205Y-13788293D02*
X17817682Y-13826388D01*
X17817682Y-13826388D02*
X17808158Y-13845436D01*
X17808158Y-13845436D02*
X17798634Y-13854960D01*
X17798634Y-13854960D02*
X17779586Y-13864484D01*
X17779586Y-13864484D02*
X17760539Y-13864484D01*
X17760539Y-13864484D02*
X17741491Y-13854960D01*
X17741491Y-13854960D02*
X17731967Y-13845436D01*
X17731967Y-13845436D02*
X17722444Y-13826388D01*
X17722444Y-13826388D02*
X17712920Y-13788293D01*
X17712920Y-13788293D02*
X17712920Y-13740674D01*
X17712920Y-13740674D02*
X17722444Y-13702579D01*
X17722444Y-13702579D02*
X17731967Y-13683531D01*
X17731967Y-13683531D02*
X17741491Y-13674008D01*
X17741491Y-13674008D02*
X17760539Y-13664484D01*
X17912920Y-13864484D02*
X17912920Y-13731150D01*
X17912920Y-13750198D02*
X17922444Y-13740674D01*
X17922444Y-13740674D02*
X17941491Y-13731150D01*
X17941491Y-13731150D02*
X17970063Y-13731150D01*
X17970063Y-13731150D02*
X17989110Y-13740674D01*
X17989110Y-13740674D02*
X17998634Y-13759722D01*
X17998634Y-13759722D02*
X17998634Y-13864484D01*
X17998634Y-13759722D02*
X18008158Y-13740674D01*
X18008158Y-13740674D02*
X18027205Y-13731150D01*
X18027205Y-13731150D02*
X18055777Y-13731150D01*
X18055777Y-13731150D02*
X18074825Y-13740674D01*
X18074825Y-13740674D02*
X18084348Y-13759722D01*
X18084348Y-13759722D02*
X18084348Y-13864484D01*
X18179586Y-13864484D02*
X18179586Y-13731150D01*
X18179586Y-13750198D02*
X18189110Y-13740674D01*
X18189110Y-13740674D02*
X18208158Y-13731150D01*
X18208158Y-13731150D02*
X18236729Y-13731150D01*
X18236729Y-13731150D02*
X18255777Y-13740674D01*
X18255777Y-13740674D02*
X18265301Y-13759722D01*
X18265301Y-13759722D02*
X18265301Y-13864484D01*
X18265301Y-13759722D02*
X18274825Y-13740674D01*
X18274825Y-13740674D02*
X18293872Y-13731150D01*
X18293872Y-13731150D02*
X18322444Y-13731150D01*
X18322444Y-13731150D02*
X18341491Y-13740674D01*
X18341491Y-13740674D02*
X18351015Y-13759722D01*
X18351015Y-13759722D02*
X18351015Y-13864484D01*
X18741491Y-13654960D02*
X18570063Y-13912103D01*
X18998634Y-13664484D02*
X19017682Y-13664484D01*
X19017682Y-13664484D02*
X19036729Y-13674008D01*
X19036729Y-13674008D02*
X19046253Y-13683531D01*
X19046253Y-13683531D02*
X19055777Y-13702579D01*
X19055777Y-13702579D02*
X19065301Y-13740674D01*
X19065301Y-13740674D02*
X19065301Y-13788293D01*
X19065301Y-13788293D02*
X19055777Y-13826388D01*
X19055777Y-13826388D02*
X19046253Y-13845436D01*
X19046253Y-13845436D02*
X19036729Y-13854960D01*
X19036729Y-13854960D02*
X19017682Y-13864484D01*
X19017682Y-13864484D02*
X18998634Y-13864484D01*
X18998634Y-13864484D02*
X18979587Y-13854960D01*
X18979587Y-13854960D02*
X18970063Y-13845436D01*
X18970063Y-13845436D02*
X18960539Y-13826388D01*
X18960539Y-13826388D02*
X18951015Y-13788293D01*
X18951015Y-13788293D02*
X18951015Y-13740674D01*
X18951015Y-13740674D02*
X18960539Y-13702579D01*
X18960539Y-13702579D02*
X18970063Y-13683531D01*
X18970063Y-13683531D02*
X18979587Y-13674008D01*
X18979587Y-13674008D02*
X18998634Y-13664484D01*
X19151015Y-13845436D02*
X19160539Y-13854960D01*
X19160539Y-13854960D02*
X19151015Y-13864484D01*
X19151015Y-13864484D02*
X19141491Y-13854960D01*
X19141491Y-13854960D02*
X19151015Y-13845436D01*
X19151015Y-13845436D02*
X19151015Y-13864484D01*
X19284348Y-13664484D02*
X19303396Y-13664484D01*
X19303396Y-13664484D02*
X19322444Y-13674008D01*
X19322444Y-13674008D02*
X19331968Y-13683531D01*
X19331968Y-13683531D02*
X19341491Y-13702579D01*
X19341491Y-13702579D02*
X19351015Y-13740674D01*
X19351015Y-13740674D02*
X19351015Y-13788293D01*
X19351015Y-13788293D02*
X19341491Y-13826388D01*
X19341491Y-13826388D02*
X19331968Y-13845436D01*
X19331968Y-13845436D02*
X19322444Y-13854960D01*
X19322444Y-13854960D02*
X19303396Y-13864484D01*
X19303396Y-13864484D02*
X19284348Y-13864484D01*
X19284348Y-13864484D02*
X19265301Y-13854960D01*
X19265301Y-13854960D02*
X19255777Y-13845436D01*
X19255777Y-13845436D02*
X19246253Y-13826388D01*
X19246253Y-13826388D02*
X19236729Y-13788293D01*
X19236729Y-13788293D02*
X19236729Y-13740674D01*
X19236729Y-13740674D02*
X19246253Y-13702579D01*
X19246253Y-13702579D02*
X19255777Y-13683531D01*
X19255777Y-13683531D02*
X19265301Y-13674008D01*
X19265301Y-13674008D02*
X19284348Y-13664484D01*
X19417682Y-13664484D02*
X19541491Y-13664484D01*
X19541491Y-13664484D02*
X19474825Y-13740674D01*
X19474825Y-13740674D02*
X19503396Y-13740674D01*
X19503396Y-13740674D02*
X19522444Y-13750198D01*
X19522444Y-13750198D02*
X19531968Y-13759722D01*
X19531968Y-13759722D02*
X19541491Y-13778769D01*
X19541491Y-13778769D02*
X19541491Y-13826388D01*
X19541491Y-13826388D02*
X19531968Y-13845436D01*
X19531968Y-13845436D02*
X19522444Y-13854960D01*
X19522444Y-13854960D02*
X19503396Y-13864484D01*
X19503396Y-13864484D02*
X19446253Y-13864484D01*
X19446253Y-13864484D02*
X19427206Y-13854960D01*
X19427206Y-13854960D02*
X19417682Y-13845436D01*
X19636729Y-13864484D02*
X19674825Y-13864484D01*
X19674825Y-13864484D02*
X19693872Y-13854960D01*
X19693872Y-13854960D02*
X19703396Y-13845436D01*
X19703396Y-13845436D02*
X19722444Y-13816865D01*
X19722444Y-13816865D02*
X19731968Y-13778769D01*
X19731968Y-13778769D02*
X19731968Y-13702579D01*
X19731968Y-13702579D02*
X19722444Y-13683531D01*
X19722444Y-13683531D02*
X19712920Y-13674008D01*
X19712920Y-13674008D02*
X19693872Y-13664484D01*
X19693872Y-13664484D02*
X19655777Y-13664484D01*
X19655777Y-13664484D02*
X19636729Y-13674008D01*
X19636729Y-13674008D02*
X19627206Y-13683531D01*
X19627206Y-13683531D02*
X19617682Y-13702579D01*
X19617682Y-13702579D02*
X19617682Y-13750198D01*
X19617682Y-13750198D02*
X19627206Y-13769246D01*
X19627206Y-13769246D02*
X19636729Y-13778769D01*
X19636729Y-13778769D02*
X19655777Y-13788293D01*
X19655777Y-13788293D02*
X19693872Y-13788293D01*
X19693872Y-13788293D02*
X19712920Y-13778769D01*
X19712920Y-13778769D02*
X19722444Y-13769246D01*
X19722444Y-13769246D02*
X19731968Y-13750198D01*
X19903396Y-13731150D02*
X19903396Y-13864484D01*
X19855777Y-13654960D02*
X19808158Y-13797817D01*
X19808158Y-13797817D02*
X19931968Y-13797817D01*
X19998634Y-13664484D02*
X19998634Y-13702579D01*
X20074825Y-13664484D02*
X20074825Y-13702579D01*
X20370063Y-13940674D02*
X20360539Y-13931150D01*
X20360539Y-13931150D02*
X20341491Y-13902579D01*
X20341491Y-13902579D02*
X20331968Y-13883531D01*
X20331968Y-13883531D02*
X20322444Y-13854960D01*
X20322444Y-13854960D02*
X20312920Y-13807341D01*
X20312920Y-13807341D02*
X20312920Y-13769246D01*
X20312920Y-13769246D02*
X20322444Y-13721627D01*
X20322444Y-13721627D02*
X20331968Y-13693055D01*
X20331968Y-13693055D02*
X20341491Y-13674008D01*
X20341491Y-13674008D02*
X20360539Y-13645436D01*
X20360539Y-13645436D02*
X20370063Y-13635912D01*
X20551015Y-13864484D02*
X20436730Y-13864484D01*
X20493872Y-13864484D02*
X20493872Y-13664484D01*
X20493872Y-13664484D02*
X20474825Y-13693055D01*
X20474825Y-13693055D02*
X20455777Y-13712103D01*
X20455777Y-13712103D02*
X20436730Y-13721627D01*
X20674825Y-13664484D02*
X20693872Y-13664484D01*
X20693872Y-13664484D02*
X20712920Y-13674008D01*
X20712920Y-13674008D02*
X20722444Y-13683531D01*
X20722444Y-13683531D02*
X20731968Y-13702579D01*
X20731968Y-13702579D02*
X20741491Y-13740674D01*
X20741491Y-13740674D02*
X20741491Y-13788293D01*
X20741491Y-13788293D02*
X20731968Y-13826388D01*
X20731968Y-13826388D02*
X20722444Y-13845436D01*
X20722444Y-13845436D02*
X20712920Y-13854960D01*
X20712920Y-13854960D02*
X20693872Y-13864484D01*
X20693872Y-13864484D02*
X20674825Y-13864484D01*
X20674825Y-13864484D02*
X20655777Y-13854960D01*
X20655777Y-13854960D02*
X20646253Y-13845436D01*
X20646253Y-13845436D02*
X20636730Y-13826388D01*
X20636730Y-13826388D02*
X20627206Y-13788293D01*
X20627206Y-13788293D02*
X20627206Y-13740674D01*
X20627206Y-13740674D02*
X20636730Y-13702579D01*
X20636730Y-13702579D02*
X20646253Y-13683531D01*
X20646253Y-13683531D02*
X20655777Y-13674008D01*
X20655777Y-13674008D02*
X20674825Y-13664484D01*
X20979587Y-13864484D02*
X20979587Y-13664484D01*
X21065301Y-13864484D02*
X21065301Y-13759722D01*
X21065301Y-13759722D02*
X21055777Y-13740674D01*
X21055777Y-13740674D02*
X21036730Y-13731150D01*
X21036730Y-13731150D02*
X21008158Y-13731150D01*
X21008158Y-13731150D02*
X20989111Y-13740674D01*
X20989111Y-13740674D02*
X20979587Y-13750198D01*
X21189111Y-13864484D02*
X21170063Y-13854960D01*
X21170063Y-13854960D02*
X21160539Y-13845436D01*
X21160539Y-13845436D02*
X21151015Y-13826388D01*
X21151015Y-13826388D02*
X21151015Y-13769246D01*
X21151015Y-13769246D02*
X21160539Y-13750198D01*
X21160539Y-13750198D02*
X21170063Y-13740674D01*
X21170063Y-13740674D02*
X21189111Y-13731150D01*
X21189111Y-13731150D02*
X21217682Y-13731150D01*
X21217682Y-13731150D02*
X21236730Y-13740674D01*
X21236730Y-13740674D02*
X21246253Y-13750198D01*
X21246253Y-13750198D02*
X21255777Y-13769246D01*
X21255777Y-13769246D02*
X21255777Y-13826388D01*
X21255777Y-13826388D02*
X21246253Y-13845436D01*
X21246253Y-13845436D02*
X21236730Y-13854960D01*
X21236730Y-13854960D02*
X21217682Y-13864484D01*
X21217682Y-13864484D02*
X21189111Y-13864484D01*
X21370063Y-13864484D02*
X21351015Y-13854960D01*
X21351015Y-13854960D02*
X21341492Y-13835912D01*
X21341492Y-13835912D02*
X21341492Y-13664484D01*
X21522444Y-13854960D02*
X21503396Y-13864484D01*
X21503396Y-13864484D02*
X21465301Y-13864484D01*
X21465301Y-13864484D02*
X21446253Y-13854960D01*
X21446253Y-13854960D02*
X21436730Y-13835912D01*
X21436730Y-13835912D02*
X21436730Y-13759722D01*
X21436730Y-13759722D02*
X21446253Y-13740674D01*
X21446253Y-13740674D02*
X21465301Y-13731150D01*
X21465301Y-13731150D02*
X21503396Y-13731150D01*
X21503396Y-13731150D02*
X21522444Y-13740674D01*
X21522444Y-13740674D02*
X21531968Y-13759722D01*
X21531968Y-13759722D02*
X21531968Y-13778769D01*
X21531968Y-13778769D02*
X21436730Y-13797817D01*
X21608158Y-13854960D02*
X21627206Y-13864484D01*
X21627206Y-13864484D02*
X21665301Y-13864484D01*
X21665301Y-13864484D02*
X21684349Y-13854960D01*
X21684349Y-13854960D02*
X21693873Y-13835912D01*
X21693873Y-13835912D02*
X21693873Y-13826388D01*
X21693873Y-13826388D02*
X21684349Y-13807341D01*
X21684349Y-13807341D02*
X21665301Y-13797817D01*
X21665301Y-13797817D02*
X21636730Y-13797817D01*
X21636730Y-13797817D02*
X21617682Y-13788293D01*
X21617682Y-13788293D02*
X21608158Y-13769246D01*
X21608158Y-13769246D02*
X21608158Y-13759722D01*
X21608158Y-13759722D02*
X21617682Y-13740674D01*
X21617682Y-13740674D02*
X21636730Y-13731150D01*
X21636730Y-13731150D02*
X21665301Y-13731150D01*
X21665301Y-13731150D02*
X21684349Y-13740674D01*
X21760539Y-13940674D02*
X21770063Y-13931150D01*
X21770063Y-13931150D02*
X21789111Y-13902579D01*
X21789111Y-13902579D02*
X21798634Y-13883531D01*
X21798634Y-13883531D02*
X21808158Y-13854960D01*
X21808158Y-13854960D02*
X21817682Y-13807341D01*
X21817682Y-13807341D02*
X21817682Y-13769246D01*
X21817682Y-13769246D02*
X21808158Y-13721627D01*
X21808158Y-13721627D02*
X21798634Y-13693055D01*
X21798634Y-13693055D02*
X21789111Y-13674008D01*
X21789111Y-13674008D02*
X21770063Y-13645436D01*
X21770063Y-13645436D02*
X21760539Y-13635912D01*
M02*
