M48
; DRILL file {KiCad 7.0.9-7.0.9~ubuntu22.04.1} date lun 27 nov 2023 21:35:52
; FORMAT={-:-/ absolute / inch / decimal}
; #@! TF.CreationDate,2023-11-27T21:35:52+01:00
; #@! TF.GenerationSoftware,Kicad,Pcbnew,7.0.9-7.0.9~ubuntu22.04.1
; #@! TF.FileFunction,Plated,1,2,PTH
FMAT,2
INCH
; #@! TA.AperFunction,Plated,PTH,ViaDrill
T1C0.0118
; #@! TA.AperFunction,Plated,PTH,ComponentDrill
T2C0.0118
; #@! TA.AperFunction,Plated,PTH,ComponentDrill
T3C0.0394
%
G90
G05
T1
X6.7205Y-4.3583
X6.7677Y-4.7283
X6.8819Y-4.5433
X6.9921Y-4.3976
X7.1496Y-4.9055
X7.2953Y-4.4921
X7.3386Y-4.5276
X7.3543Y-4.3307
X7.4147Y-4.3602
X7.4172Y-4.4116
X7.4623Y-4.5227
X7.4973Y-4.5368
X7.5276Y-4.5532
X7.5394Y-4.5179
X7.5444Y-4.3023
X7.5945Y-4.2874
X7.6575Y-4.2323
X7.8268Y-4.3346
X7.874Y-4.7244
X7.874Y-4.7638
X7.874Y-4.8031
X7.874Y-4.8425
T2
X7.4911Y-4.3745
X7.4911Y-4.4129
X7.4911Y-4.4513
X7.5295Y-4.3745
X7.5295Y-4.4129
X7.5295Y-4.4513
X7.5679Y-4.3745
X7.5679Y-4.4129
X7.5679Y-4.4513
T3
X6.824Y-4.8343
X6.924Y-4.8343
X7.024Y-4.8343
X7.124Y-4.8343
X7.224Y-4.8343
X7.324Y-4.8343
X7.424Y-4.8343
X7.524Y-4.8343
X7.624Y-4.8343
X7.724Y-4.8343
T0
M30
